# Made in Blockbench 4.9.4
mtllib whiteboard.mtl

o whiteboard
v 0.78125 0.96875 0.015625
v 0.78125 0.96875 -0.015625
v 0.78125 0.03125 0.015625
v 0.78125 0.03125 -0.015625
v -0.78125 0.96875 0.015625
v -0.78125 0.96875 -0.015625
v -0.78125 0.03125 0.015625
v -0.78125 0.03125 -0.015625
v 0.8125 0.96875 0.015625
v 0.8125 0.03125 0.015625
v 0.8125 0.96875 -0.015625
v 0.8125 0.03125 -0.015625
v -0.8125 0.96875 0.015625
v -0.8125 0.96875 -0.015625
v -0.8125 0.03125 0.015625
v -0.8125 0.03125 -0.015625
v 0.78125 0 0.015625
v -0.78125 0 0.015625
v 0.78125 0 -0.015625
v -0.78125 0 -0.015625
v 0.78125 1 0.015625
v 0.78125 1 -0.015625
v -0.78125 1 0.015625
v -0.78125 1 -0.015625
v -0.803125 0.990625 0.015625
v -0.803125 0.990625 -0.015625
v -0.803125 0.009375000000000022 0.015625
v -0.803125 0.009375000000000022 -0.015625
v 0.803125 0.990625 -0.015625
v 0.803125 0.990625 0.015625
v 0.803125 0.009375000000000022 0.015625
v 0.803125 0.009375000000000022 -0.015625
v 0.78125 0.96875 0
v 0.78125 0.03125 0
v -0.78125 0.96875 0
v -0.78125 0.03125 0
v 0.8125 0.9375 -0.015625
v 0.78125 0.9375 -0.015625
v 0.78125 0.9375 0
v -0.78125 0.9375 0
v -0.78125 0.9375 -0.015625
v -0.8125 0.9375 -0.015625
v -0.8125 0.9375 0.015625
v -0.78125 0.9375 0.015625
v 0.78125 0.9375 0.015625
v 0.8125 0.9375 0.015625
v 0.78125 0.0625 -0.015625
v 0.8125 0.0625 -0.015625
v 0.8125 0.0625 0.015625
v 0.78125 0.0625 0.015625
v -0.78125 0.0625 0.015625
v -0.8125 0.0625 0.015625
v -0.8125 0.0625 -0.015625
v -0.78125 0.0625 -0.015625
v -0.78125 0.0625 0
v 0.78125 0.0625 0
v 0.75 0 -0.015625
v 0.75 0.03125 -0.015625
v 0.75 0.03125 0
v 0.75 0.0625 0
v 0.75 0.9375 0
v 0.75 0.96875 0
v 0.75 0.96875 -0.015625
v 0.75 1 -0.015625
v 0.75 1 0.015625
v 0.75 0.96875 0.015625
v 0.75 0.9375 0.015625
v 0.75 0.0625 0.015625
v 0.75 0.03125 0.015625
v 0.75 0 0.015625
v -0.75 0.03125 -0.015625
v -0.75 0 -0.015625
v -0.75 0 0.015625
v -0.75 0.03125 0.015625
v -0.75 0.0625 0.015625
v -0.75 0.9375 0.015625
v -0.75 0.96875 0.015625
v -0.75 1 0.015625
v -0.75 1 -0.015625
v -0.75 0.96875 -0.015625
v -0.75 0.96875 0
v -0.75 0.9375 0
v -0.75 0.0625 0
v -0.75 0.03125 0
v 0.25 0 0.015625
v 0.25 0 -0.015625
v -0.25 0 0.015625
v -0.25 0 -0.015625
v 0.25 0.03125 -0.015625
v -0.25 0.03125 -0.015625
v 0.25 0.03125 0
v -0.25 0.03125 0
v 0.25 0.0625 0
v -0.25 0.0625 0
v 0.25 0.9375 0
v -0.25 0.9375 0
v 0.25 0.96875 0
v -0.25 0.96875 0
v 0.25 0.96875 -0.015625
v -0.25 0.96875 -0.015625
v 0.25 1 -0.015625
v -0.25 1 -0.015625
v 0.25 1 0.015625
v -0.25 1 0.015625
v 0.25 0.96875 0.015625
v -0.25 0.96875 0.015625
v 0.25 0.9375 0.015625
v -0.25 0.9375 0.015625
v 0.25 0.0625 0.015625
v -0.25 0.0625 0.015625
v 0.25 0.03125 0.015625
v -0.25 0.03125 0.015625
v 0.25 -0.03125 0.015625
v -0.25 -0.03125 0.015625
v -0.25 -0.03125 -0.015625
v 0.25 -0.03125 -0.015625
v 0.25 -0.03125 -0.078125
v -0.25 -0.03125 -0.078125
v -0.25 0 -0.078125
v 0.25 0 -0.078125
v -0.296875 0 -0.078125
v -0.296875 -0.03125 -0.078125
v -0.296875 -0.03125 -0.015625
v -0.296875 0 -0.015625
v 0.296875 -0.03125 -0.078125
v 0.296875 0 -0.078125
v 0.296875 0 -0.015625
v 0.296875 -0.03125 -0.015625
v -0.296875 0 0.015625
v -0.296875 -0.03125 0.015625
v -0.25 -0.03125 0.015625
v -0.25 0 0.015625
v 0.296875 -0.03125 0.015625
v 0.296875 0 0.015625
v 0.25 0 0.015625
v 0.25 -0.03125 0.015625
vt 0.484375 0.6102609375
vt 0.484375 0.3915109375
vt 0.4921875 0.3915109375
vt 0.4921875 0.6102609375
vt 0.515625 0.6102609375
vt 0.515625 0.3915109375
vt 0.5234375 0.3915109375
vt 0.5234375 0.6102609375
vt 0.498779296875 0.67919921875
vt 0.623779296875 0.67919921875
vt 0.623779296875 0.68701171875
vt 0.498779296875 0.68701171875
vt 0.015625 0.765625
vt 0.140625 0.765625
vt 0.140625 0.984375
vt 0.015625 0.984375
vt 0.8046875 0.9921875
vt 0.6796875 0.9921875
vt 0.6796875 0.7734375
vt 0.8046875 0.7734375
vt 0.3984375 0.984375
vt 0.3984375 0.765625
vt 0.40625 0.765625
vt 0.40625 0.984375
vt 0 0.984375
vt 0 0.765625
vt 0.0078125 0.765625
vt 0.0078125 0.984375
vt 0.015625 0.75
vt 0.140625 0.75
vt 0.140625 0.7578125
vt 0.015625 0.7578125
vt 0.015625 0.9921875
vt 0.140625 0.9921875
vt 0.140625 1
vt 0.015625 1
vt 0.0078125 0.9921875
vt 0.0023437500000000056 0.99765625
vt 0 0.9921875
vt 0.0078125 1
vt 0.0023437500000000056 0.99765625
vt 0.0078125 0.9921875
vt 0.498779296875 0.6484375
vt 0.623779296875 0.6484375
vt 0.623779296875 0.65625
vt 0.498779296875 0.65625
vt 0.515625 0.384675
vt 0.515625 0.378725
vt 0.5234375 0.378725
vt 0.5234375 0.384675
vt 0.490478515625 0.68701171875
vt 0.484530078125 0.68701171875
vt 0.484530078125 0.67919921875
vt 0.490478515625 0.67919921875
vt 0.5234375 0.61905
vt 0.5234375 0.625
vt 0.515625 0.625
vt 0.515625 0.61905
vt 0.490478515625 0.65625
vt 0.484530078125 0.65625
vt 0.484530078125 0.6484375
vt 0.490478515625 0.6484375
vt 0.881103515625 0.6484375
vt 0.8870519531250001 0.6484375
vt 0.8870519531250001 0.65625
vt 0.881103515625 0.65625
vt 0.3984375 0.9921875
vt 0.40390625 0.99765625
vt 0.3984375 1
vt 0.4921875 0.61905
vt 0.4921875 0.625
vt 0.484375 0.625
vt 0.484375 0.61905
vt 0.40625 0.9921875
vt 0.40390625 0.99765625
vt 0.3984375 0.9921875
vt 0.881103515625 0.67919921875
vt 0.8870519531250001 0.67919921875
vt 0.8870519531250001 0.68701171875
vt 0.881103515625 0.68701171875
vt 0.484375 0.384675
vt 0.484375 0.378725
vt 0.4921875 0.378725
vt 0.4921875 0.384675
vt 0 0.71875
vt 0 0.5
vt 0.0078125 0.5
vt 0.0078125 0.71875
vt 0.3984375 0.71875
vt 0.3984375 0.5
vt 0.40625 0.5
vt 0.40625 0.71875
vt 0.390625 0.4921875
vt 0.265625 0.4921875
vt 0.265625 0.484375
vt 0.390625 0.484375
vt 0.390625 0.734375
vt 0.265625 0.734375
vt 0.265625 0.7265625
vt 0.390625 0.7265625
vt 0.3984375 0.7265625
vt 0.40390625 0.73203125
vt 0.3984375 0.734375
vt 0.40625 0.7265625
vt 0.40390625 0.73203125
vt 0.3984375 0.7265625
vt 0.3984375 0.4921875
vt 0.40390625 0.48671875
vt 0.40625 0.4921875
vt 0.3984375 0.484375
vt 0.40390625 0.48671875
vt 0.3984375 0.4921875
vt 0.0078125 0.4921875
vt 0.0023437500000000056 0.48671875
vt 0.0078125 0.484375
vt 0 0.4921875
vt 0.0023437500000000056 0.48671875
vt 0.0078125 0.4921875
vt 0.4296875 0.734375
vt 0.5546875 0.734375
vt 0.5546875 0.75
vt 0.4296875 0.75
vt 0.421875 0.6796875
vt 0.421875 0.4609375
vt 0.4375 0.4609375
vt 0.4375 0.6796875
vt 0.4296875 0.703125
vt 0.5546875 0.703125
vt 0.5546875 0.71875
vt 0.4296875 0.71875
vt 0.453125 0.6796875
vt 0.453125 0.4609375
vt 0.46875 0.4609375
vt 0.46875 0.6796875
vt 0 0.7265625
vt 0 0.71875
vt 0.0078125 0.71875
vt 0.0078125 0.7265625
vt 0.421875 0.6875
vt 0.421875 0.6796875
vt 0.4375 0.6796875
vt 0.4375 0.6875
vt 0.8046875 1
vt 0.6796875 1
vt 0.6796875 0.9921875
vt 0.8046875 0.9921875
vt 0.453125 0.6875
vt 0.453125 0.6796875
vt 0.46875 0.6796875
vt 0.46875 0.6875
vt 0.3984375 0.7265625
vt 0.3984375 0.71875
vt 0.40625 0.71875
vt 0.40625 0.7265625
vt 0.515625 0.61905
vt 0.515625 0.6112375
vt 0.5234375 0.6112375
vt 0.5234375 0.61905
vt 0 0.9921875
vt 0 0.984375
vt 0.0078125 0.984375
vt 0.0078125 0.9921875
vt 0.015625 0.984375
vt 0.140625 0.984375
vt 0.140625 0.9921875
vt 0.015625 0.9921875
vt 0.3984375 0.9921875
vt 0.3984375 0.984375
vt 0.40625 0.984375
vt 0.40625 0.9921875
vt 0.484375 0.61905
vt 0.484375 0.6112375
vt 0.4921875 0.6112375
vt 0.4921875 0.61905
vt 0.0078125 0.4921875
vt 0.0078125 0.5
vt 0 0.5
vt 0 0.4921875
vt 0.4921875 0.382721875
vt 0.4921875 0.390534375
vt 0.484375 0.390534375
vt 0.484375 0.382721875
vt 0.40625 0.7578125
vt 0.40625 0.765625
vt 0.3984375 0.765625
vt 0.3984375 0.7578125
vt 0.015625 0.7578125
vt 0.140625 0.7578125
vt 0.140625 0.765625
vt 0.015625 0.765625
vt 0.0078125 0.7578125
vt 0.0078125 0.765625
vt 0 0.765625
vt 0 0.7578125
vt 0.5234375 0.382721875
vt 0.5234375 0.390534375
vt 0.515625 0.390534375
vt 0.515625 0.382721875
vt 0.40625 0.4921875
vt 0.40625 0.5
vt 0.3984375 0.5
vt 0.3984375 0.4921875
vt 0.46875 0.453125
vt 0.46875 0.4609375
vt 0.453125 0.4609375
vt 0.453125 0.453125
vt 0.8046875 0.7734375
vt 0.6796875 0.7734375
vt 0.6796875 0.765625
vt 0.8046875 0.765625
vt 0.4375 0.453125
vt 0.4375 0.4609375
vt 0.421875 0.4609375
vt 0.421875 0.453125
vt 0.0078125 0.484375
vt 0.015625 0.484375
vt 0.015625 0.4921875
vt 0.0078125 0.4921875
vt 0.8125 0.71875
vt 0.8046875 0.71875
vt 0.8046875 0.703125
vt 0.8125 0.703125
vt 0.421875 0.765625
vt 0.4296875 0.765625
vt 0.4296875 0.7734375
vt 0.421875 0.7734375
vt 0.421875 0.7734375
vt 0.4296875 0.7734375
vt 0.4296875 0.9921875
vt 0.421875 0.9921875
vt 0.421875 0.9921875
vt 0.4296875 0.9921875
vt 0.4296875 1
vt 0.421875 1
vt 0.8125 0.75
vt 0.8046875 0.75
vt 0.8046875 0.734375
vt 0.8125 0.734375
vt 0.0078125 0.7265625
vt 0.015625 0.7265625
vt 0.015625 0.734375
vt 0.0078125 0.734375
vt 0.881103515625 0.65625
vt 0.873291015625 0.65625
vt 0.873291015625 0.6484375
vt 0.881103515625 0.6484375
vt 0.3984375 1
vt 0.390625 1
vt 0.390625 0.9921875
vt 0.3984375 0.9921875
vt 0.3984375 0.9921875
vt 0.390625 0.9921875
vt 0.390625 0.984375
vt 0.3984375 0.984375
vt 0.3984375 0.984375
vt 0.390625 0.984375
vt 0.390625 0.765625
vt 0.3984375 0.765625
vt 0.3984375 0.765625
vt 0.390625 0.765625
vt 0.390625 0.7578125
vt 0.3984375 0.7578125
vt 0.3984375 0.7578125
vt 0.390625 0.7578125
vt 0.390625 0.75
vt 0.3984375 0.75
vt 0.881103515625 0.68701171875
vt 0.873291015625 0.68701171875
vt 0.873291015625 0.67919921875
vt 0.881103515625 0.67919921875
vt 0.3984375 0.4921875
vt 0.390625 0.4921875
vt 0.390625 0.484375
vt 0.3984375 0.484375
vt 0.490478515625 0.67919921875
vt 0.498291015625 0.67919921875
vt 0.498291015625 0.68701171875
vt 0.490478515625 0.68701171875
vt 0.0078125 0.75
vt 0.015625 0.75
vt 0.015625 0.7578125
vt 0.0078125 0.7578125
vt 0.0078125 0.7578125
vt 0.015625 0.7578125
vt 0.015625 0.765625
vt 0.0078125 0.765625
vt 0.0078125 0.765625
vt 0.015625 0.765625
vt 0.015625 0.984375
vt 0.0078125 0.984375
vt 0.0078125 0.984375
vt 0.015625 0.984375
vt 0.015625 0.9921875
vt 0.0078125 0.9921875
vt 0.0078125 0.9921875
vt 0.015625 0.9921875
vt 0.015625 1
vt 0.0078125 1
vt 0.490478515625 0.6484375
vt 0.498291015625 0.6484375
vt 0.498291015625 0.65625
vt 0.490478515625 0.65625
vt 0.3984375 0.734375
vt 0.390625 0.734375
vt 0.390625 0.7265625
vt 0.3984375 0.7265625
vt 0.421875 0.734375
vt 0.4296875 0.734375
vt 0.4296875 0.75
vt 0.421875 0.75
vt 0.8125 1
vt 0.8046875 1
vt 0.8046875 0.9921875
vt 0.8125 0.9921875
vt 0.8125 0.9921875
vt 0.8046875 0.9921875
vt 0.8046875 0.7734375
vt 0.8125 0.7734375
vt 0.8125 0.7734375
vt 0.8046875 0.7734375
vt 0.8046875 0.765625
vt 0.8125 0.765625
vt 0.421875 0.703125
vt 0.4296875 0.703125
vt 0.4296875 0.71875
vt 0.421875 0.71875
vt 0.872314453125 0.68701171875
vt 0.747314453125 0.68701171875
vt 0.747314453125 0.67919921875
vt 0.872314453125 0.67919921875
vt 0.748291015625 0.68701171875
vt 0.623291015625 0.68701171875
vt 0.623291015625 0.67919921875
vt 0.748291015625 0.67919921875
vt 0.015625 0.484375
vt 0.140625 0.484375
vt 0.140625 0.4921875
vt 0.015625 0.4921875
vt 0.140625 0.484375
vt 0.265625 0.484375
vt 0.265625 0.4921875
vt 0.140625 0.4921875
vt 0.8046875 0.71875
vt 0.6796875 0.71875
vt 0.6796875 0.703125
vt 0.8046875 0.703125
vt 0.6796875 0.71875
vt 0.5546875 0.71875
vt 0.5546875 0.703125
vt 0.6796875 0.703125
vt 0.4296875 0.765625
vt 0.5546875 0.765625
vt 0.5546875 0.7734375
vt 0.4296875 0.7734375
vt 0.5546875 0.765625
vt 0.6796875 0.765625
vt 0.6796875 0.7734375
vt 0.5546875 0.7734375
vt 0.4296875 0.7734375
vt 0.5546875 0.7734375
vt 0.5546875 0.9921875
vt 0.4296875 0.9921875
vt 0.5546875 0.7734375
vt 0.6796875 0.7734375
vt 0.6796875 0.9921875
vt 0.5546875 0.9921875
vt 0.4296875 0.9921875
vt 0.5546875 0.9921875
vt 0.5546875 1
vt 0.4296875 1
vt 0.5546875 0.9921875
vt 0.6796875 0.9921875
vt 0.6796875 1
vt 0.5546875 1
vt 0.8046875 0.75
vt 0.6796875 0.75
vt 0.6796875 0.734375
vt 0.8046875 0.734375
vt 0.6796875 0.75
vt 0.5546875 0.75
vt 0.5546875 0.734375
vt 0.6796875 0.734375
vt 0.015625 0.7265625
vt 0.140625 0.7265625
vt 0.140625 0.734375
vt 0.015625 0.734375
vt 0.140625 0.7265625
vt 0.265625 0.7265625
vt 0.265625 0.734375
vt 0.140625 0.734375
vt 0.872802734375 0.65625
vt 0.747802734375 0.65625
vt 0.747802734375 0.6484375
vt 0.872802734375 0.6484375
vt 0.748291015625 0.65625
vt 0.623291015625 0.65625
vt 0.623291015625 0.6484375
vt 0.748291015625 0.6484375
vt 0.390625 1
vt 0.265625 1
vt 0.265625 0.9921875
vt 0.390625 0.9921875
vt 0.265625 1
vt 0.140625 1
vt 0.140625 0.9921875
vt 0.265625 0.9921875
vt 0.390625 0.9921875
vt 0.265625 0.9921875
vt 0.265625 0.984375
vt 0.390625 0.984375
vt 0.265625 0.9921875
vt 0.140625 0.9921875
vt 0.140625 0.984375
vt 0.265625 0.984375
vt 0.390625 0.984375
vt 0.265625 0.984375
vt 0.265625 0.765625
vt 0.390625 0.765625
vt 0.265625 0.984375
vt 0.140625 0.984375
vt 0.140625 0.765625
vt 0.265625 0.765625
vt 0.390625 0.765625
vt 0.265625 0.765625
vt 0.265625 0.7578125
vt 0.390625 0.7578125
vt 0.265625 0.765625
vt 0.140625 0.765625
vt 0.140625 0.7578125
vt 0.265625 0.7578125
vt 0.390625 0.7578125
vt 0.265625 0.7578125
vt 0.265625 0.75
vt 0.390625 0.75
vt 0.265625 0.7578125
vt 0.140625 0.7578125
vt 0.140625 0.75
vt 0.265625 0.75
vt 0.28125 0.828125
vt 0.40625 0.828125
vt 0.40625 0.84375
vt 0.28125 0.84375
vt 0.3125 0.828125
vt 0.3203125 0.828125
vt 0.3203125 0.84375
vt 0.3125 0.84375
vt 0.28125 0.828125
vt 0.40625 0.828125
vt 0.40625 0.84375
vt 0.28125 0.84375
vt 0.375 0.828125
vt 0.3828125 0.828125
vt 0.3828125 0.84375
vt 0.375 0.84375
vt 0.109375 0.90625
vt 0.234375 0.90625
vt 0.234375 0.921875
vt 0.109375 0.921875
vt 0.21875 0.34814453125
vt 0.21875 0.34033203125
vt 0.234375 0.34033203125
vt 0.234375 0.34814453125
vt 0.234375 0.921875
vt 0.109375 0.921875
vt 0.109375 0.90625
vt 0.234375 0.90625
vt 0.15625 0.34033203125
vt 0.15625 0.34814453125
vt 0.140625 0.34814453125
vt 0.140625 0.34033203125
vt 0.125 0.38720703125
vt 0.125 0.39501953125
vt 0.109375 0.39501953125
vt 0.109375 0.38720703125
vt 0.109375 0.39501953125
vt 0.109375 0.37939453125
vt 0.125 0.37939453125
vt 0.125 0.39501953125
vt 0.125 0.39501953125
vt 0.125 0.38720703125
vt 0.140625 0.38720703125
vt 0.140625 0.39501953125
vt 0.109375 0.39501953125
vt 0.109375 0.37939453125
vt 0.125 0.37939453125
vt 0.125 0.39501953125
vt 0.078125 0.39501953125
vt 0.078125 0.38720703125
vt 0.09375 0.38720703125
vt 0.09375 0.39501953125
vt 0.09375 0.37939453125
vt 0.09375 0.39501953125
vt 0.078125 0.39501953125
vt 0.078125 0.37939453125
vt 0.09375 0.38720703125
vt 0.09375 0.39501953125
vt 0.078125 0.39501953125
vt 0.078125 0.38720703125
vt 0.09375 0.37939453125
vt 0.09375 0.39501953125
vt 0.078125 0.39501953125
vt 0.078125 0.37939453125
vt 0.078125 0.6953125
vt 0.078125 0.703125
vt 0.0625 0.703125
vt 0.0625 0.6953125
vt 0.08984375 0.6875
vt 0.078125 0.6875
vt 0.078125 0.671875
vt 0.08984375 0.671875
vt 0.078125 0.703125
vt 0.078125 0.6953125
vt 0.09375 0.6953125
vt 0.09375 0.703125
vt 0.078125 0.6875
vt 0.08984375 0.6875
vt 0.08984375 0.703125
vt 0.078125 0.703125
vt 0.046875 0.703125
vt 0.046875 0.6953125
vt 0.0625 0.6953125
vt 0.0625 0.703125
vt 0.03125 0.6875
vt 0.04296875 0.6875
vt 0.04296875 0.703125
vt 0.03125 0.703125
vt 0.046875 0.6953125
vt 0.046875 0.703125
vt 0.03125 0.703125
vt 0.03125 0.6953125
vt 0.04296875 0.6875
vt 0.03125 0.6875
vt 0.03125 0.671875
vt 0.04296875 0.671875
vt 0.0078125 1
vt 0.0023437500000000056 0.99765625
vt 0 0.9921875
vt 0.0078125 0.9921875
vt 0.0078125 1
vt 0 1
vt 0 0.9921875
vt 0.0054687499999999944 0.99453125
vt 0.0078125 0.9921875
vt 0.0078125 1
vt 0 1
vt 0.0023437500000000056 0.99453125
vn 1 0 0
vn -1 0 0
vn 0 -1 0
vn 0 0 1
vn 0 0 -1
vn 0 0 1
vn 0 0 1
vn 0 0 1
vn 0 0 1
vn 0 0 1
vn 0 0 1
vn 0 1 0
vn -0.9191450300180575 -0.3939192985791688 0
vn -0.3939192985791688 -0.9191450300180575 0
vn -0.9191450300180575 0.3939192985791688 0
vn -0.3939192985791688 0.9191450300180575 0
vn 0.3939192985791688 0.9191450300180575 0
vn 0 0 1
vn 0.9191450300180575 0.3939192985791688 0
vn 0 0 1
vn 0.3939192985791688 -0.9191450300180575 0
vn 0.9191450300180575 -0.3939192985791688 0
vn 0 0 -1
vn 0 0 -1
vn 0 0 -1
vn 0 0 -1
vn 0 0 -1
vn 0 0 -1
vn 0 0 -1
vn 0 0 -1
vn 0 0 -1
vn 0 0 -1
vn 0 -1 0
vn -1 0 0
vn 0 1 0
vn 1 0 0
vn 0 0 -1
vn -1 0 0
vn 0 0 -1
vn 1 0 0
vn 0 0 -1
vn -1 0 0
vn 0 0 1
vn 0 0 1
vn 0 0 1
vn 1 0 0
vn 0 0 -1
vn 1 0 0
vn 0 0 1
vn 0 0 1
vn 0 0 1
vn -1 0 0
vn 0 0 -1
vn 1 0 0
vn 0 0 -1
vn -1 0 0
vn 0 0 -1
vn 0 1 0
vn 0 0 -1
vn 0 0 -1
vn 0 0 -1
vn 0 -1 0
vn 0 0 -1
vn 0 1 0
vn 0 0 1
vn 0 0 1
vn 0 0 1
vn 0 0 1
vn 0 0 1
vn 0 -1 0
vn 0 0 -1
vn 0 -1 0
vn 0 0 1
vn 0 0 1
vn 0 0 1
vn 0 0 1
vn 0 0 1
vn 0 1 0
vn 0 0 -1
vn 0 -1 0
vn 0 0 -1
vn 0 0 -1
vn 0 0 -1
vn 0 1 0
vn 0 -1 0
vn 0 -1 0
vn 0 0 -1
vn 0 0 -1
vn 0 1 0
vn 0 1 0
vn 0 0 -1
vn 0 0 -1
vn 0 0 -1
vn 0 0 -1
vn 0 0 -1
vn 0 0 -1
vn 0 -1 0
vn 0 -1 0
vn 0 0 -1
vn 0 0 -1
vn 0 1 0
vn 0 1 0
vn 0 0 1
vn 0 0 1
vn 0 0 1
vn 0 0 1
vn 0 0 1
vn 0 0 1
vn 0 0 1
vn 0 0 1
vn 0 0 1
vn 0 0 1
vn 0 0 1
vn -1 0 0
vn 0 0 -1
vn 1 0 0
vn 0 -1 0
vn -1 0 0
vn 0 1 0
vn 1 0 0
vn 0 0 -1
vn 0 -1 0
vn 0 0 1
vn 0 1 0
vn 0 0 -1
vn 0 1 0
vn 0 0 1
vn 0 -1 0
vn -1 0 0
vn 0 -1 0
vn 1 0 0
vn 0 1 0
vn 1 0 0
vn 0 1 0
vn -1 0 0
vn 0 -1 0
vn 0 0 -1
vn 0 0 1
vn 0 0 1
usemtl m_da5aba2a-02b5-6935-600e-413c63bc453d
f 46/1/1 49/2/1 48/3/1 37/4/1
f 42/5/2 53/6/2 52/7/2 43/8/2
f 72/9/3 88/10/3 87/11/3 73/12/3
f 75/13/4 110/14/4 108/15/4 76/16/4
f 82/17/5 96/18/5 94/19/5 83/20/5
f 45/21/6 50/22/6 49/23/6 46/24/6
f 43/25/7 52/26/7 51/27/7 44/28/7
f 73/29/8 87/30/8 112/31/8 74/32/8
f 77/33/9 106/34/9 104/35/9 78/36/9
f 5/37/10 25/38/10 13/39/10
f 23/40/11 25/41/11 5/42/11
f 78/43/12 104/44/12 102/45/12 79/46/12
f 16/47/13 28/48/13 27/49/13 15/50/13
f 18/51/14 27/52/14 28/53/14 20/54/14
f 13/55/15 25/56/15 26/57/15 14/58/15
f 24/59/16 26/60/16 25/61/16 23/62/16
f 21/63/17 30/64/17 29/65/17 22/66/17
f 1/67/18 30/68/18 21/69/18
f 11/70/19 29/71/19 30/72/19 9/73/19
f 9/74/20 30/75/20 1/76/20
f 19/77/21 32/78/21 31/79/21 17/80/21
f 10/81/22 31/82/22 32/83/22 12/84/22
f 37/85/23 48/86/23 47/87/23 38/88/23
f 41/89/24 54/90/24 53/91/24 42/92/24
f 71/93/25 90/94/25 88/95/25 72/96/25
f 79/97/26 102/98/26 100/99/26 80/100/26
f 6/101/27 26/102/27 24/103/27
f 14/104/28 26/105/28 6/106/28
f 8/107/29 28/108/29 16/109/29
f 20/110/30 28/111/30 8/112/30
f 4/113/31 32/114/31 19/115/31
f 12/116/32 32/117/32 4/118/32
f 80/119/33 100/120/33 98/121/33 81/122/33
f 38/123/34 47/124/34 56/125/34 39/126/34
f 84/127/35 92/128/35 90/129/35 71/130/35
f 40/131/36 55/132/36 54/133/36 41/134/36
f 11/135/37 37/136/37 38/137/37 2/138/37
f 2/139/38 38/140/38 39/141/38 33/142/38
f 81/143/39 98/144/39 96/145/39 82/146/39
f 35/147/40 40/148/40 41/149/40 6/150/40
f 6/151/41 41/152/41 42/153/41 14/154/41
f 14/155/42 42/156/42 43/157/42 13/158/42
f 13/159/43 43/160/43 44/161/43 5/162/43
f 76/163/44 108/164/44 106/165/44 77/166/44
f 1/167/45 45/168/45 46/169/45 9/170/45
f 9/171/46 46/172/46 37/173/46 11/174/46
f 4/175/47 47/176/47 48/177/47 12/178/47
f 12/179/48 48/180/48 49/181/48 10/182/48
f 10/183/49 49/184/49 50/185/49 3/186/49
f 74/187/50 112/188/50 110/189/50 75/190/50
f 7/191/51 51/192/51 52/193/51 15/194/51
f 15/195/52 52/196/52 53/197/52 16/198/52
f 16/199/53 53/200/53 54/201/53 8/202/53
f 8/203/54 54/204/54 55/205/54 36/206/54
f 83/207/55 94/208/55 92/209/55 84/210/55
f 34/211/56 56/212/56 47/213/56 4/214/56
f 19/215/57 57/216/57 58/217/57 4/218/57
f 4/219/58 58/220/58 59/221/58 34/222/58
f 34/223/59 59/224/59 60/225/59 56/226/59
f 56/227/60 60/228/60 61/229/60 39/230/60
f 39/231/61 61/232/61 62/233/61 33/234/61
f 33/235/62 62/236/62 63/237/62 2/238/62
f 2/239/63 63/240/63 64/241/63 22/242/63
f 22/243/64 64/244/64 65/245/64 21/246/64
f 21/247/65 65/248/65 66/249/65 1/250/65
f 1/251/66 66/252/66 67/253/66 45/254/66
f 45/255/67 67/256/67 68/257/67 50/258/67
f 50/259/68 68/260/68 69/261/68 3/262/68
f 3/263/69 69/264/69 70/265/69 17/266/69
f 17/267/70 70/268/70 57/269/70 19/270/70
f 8/271/71 71/272/71 72/273/71 20/274/71
f 20/275/72 72/276/72 73/277/72 18/278/72
f 18/279/73 73/280/73 74/281/73 7/282/73
f 7/283/74 74/284/74 75/285/74 51/286/74
f 51/287/75 75/288/75 76/289/75 44/290/75
f 44/291/76 76/292/76 77/293/76 5/294/76
f 5/295/77 77/296/77 78/297/77 23/298/77
f 23/299/78 78/300/78 79/301/78 24/302/78
f 24/303/79 79/304/79 80/305/79 6/306/79
f 6/307/80 80/308/80 81/309/80 35/310/80
f 35/311/81 81/312/81 82/313/81 40/314/81
f 40/315/82 82/316/82 83/317/82 55/318/82
f 55/319/83 83/320/83 84/321/83 36/322/83
f 36/323/84 84/324/84 71/325/84 8/326/84
f 70/327/85 85/328/85 86/329/85 57/330/85
f 113/331/86 114/332/86 115/333/86 116/334/86
f 57/335/87 86/336/87 89/337/87 58/338/87
f 86/339/88 88/340/88 90/341/88 89/342/88
f 58/343/89 89/344/89 91/345/89 59/346/89
f 89/347/90 90/348/90 92/349/90 91/350/90
f 59/351/91 91/352/91 93/353/91 60/354/91
f 91/355/92 92/356/92 94/357/92 93/358/92
f 60/359/93 93/360/93 95/361/93 61/362/93
f 93/363/94 94/364/94 96/365/94 95/366/94
f 61/367/95 95/368/95 97/369/95 62/370/95
f 95/371/96 96/372/96 98/373/96 97/374/96
f 62/375/97 97/376/97 99/377/97 63/378/97
f 97/379/98 98/380/98 100/381/98 99/382/98
f 63/383/99 99/384/99 101/385/99 64/386/99
f 99/387/100 100/388/100 102/389/100 101/390/100
f 64/391/101 101/392/101 103/393/101 65/394/101
f 101/395/102 102/396/102 104/397/102 103/398/102
f 65/399/103 103/400/103 105/401/103 66/402/103
f 103/403/104 104/404/104 106/405/104 105/406/104
f 66/407/105 105/408/105 107/409/105 67/410/105
f 105/411/106 106/412/106 108/413/106 107/414/106
f 67/415/107 107/416/107 109/417/107 68/418/107
f 107/419/108 108/420/108 110/421/108 109/422/108
f 68/423/109 109/424/109 111/425/109 69/426/109
f 109/427/110 110/428/110 112/429/110 111/430/110
f 69/431/111 111/432/111 85/433/111 70/434/111
f 111/435/112 112/436/112 87/437/112 85/438/112
f 114/439/113 113/440/113 85/441/113 87/442/113
f 115/443/114 114/444/114 87/445/114 88/446/114
f 117/447/115 118/448/115 119/449/115 120/450/115
f 113/451/116 116/452/116 86/453/116 85/454/116
f 118/455/117 117/456/117 116/457/117 115/458/117
f 121/459/118 122/460/118 123/461/118 124/462/118
f 120/463/119 119/464/119 88/465/119 86/466/119
f 125/467/120 126/468/120 127/469/120 128/470/120
f 122/471/121 121/472/121 119/473/121 118/474/121
f 123/475/122 122/476/122 118/477/122 115/478/122
f 129/479/123 130/480/123 131/481/123 132/482/123
f 121/483/124 124/484/124 88/485/124 119/486/124
f 126/487/125 125/488/125 117/489/125 120/490/125
f 127/491/126 126/492/126 120/493/126 86/494/126
f 133/495/127 134/496/127 135/497/127 136/498/127
f 125/499/128 128/500/128 116/501/128 117/502/128
f 130/503/129 129/504/129 124/505/129 123/506/129
f 131/507/130 130/508/130 123/509/130 115/510/130
f 132/511/131 131/512/131 115/513/131 88/514/131
f 129/515/132 132/516/132 88/517/132 124/518/132
f 134/519/133 133/520/133 128/521/133 127/522/133
f 135/523/134 134/524/134 127/525/134 86/526/134
f 136/527/135 135/528/135 86/529/135 116/530/135
f 133/531/136 136/532/136 116/533/136 128/534/136
f 22/535/137 29/536/137 11/537/137 2/538/137
f 10/539/138 3/540/138 17/541/138 31/542/138
f 18/543/139 7/544/139 15/545/139 27/546/139
o marker
v -0.12502356074914858 0.015624999999999833 -0.037990507174766985
v 0.12382548884264608 0.015625000000000222 -0.06195194530482305
v -0.1241589268269887 0.031249999999999833 -0.02901094056417914
v 0.12469012276480596 0.03125000000000022 -0.052972378694235205
v -0.12329429290482877 0.01562499999999982 -0.020031373953591336
v 0.12555475668696586 0.015625000000000208 -0.0439928120836474
v -0.12415892682698866 -1.6653345369377348e-16 -0.02901094056417918
v 0.124690122764806 2.220446049250313e-16 -0.052972378694235246
v -0.12588819467130846 -1.3877787807814457e-16 -0.046970073785354824
v 0.1229608549204862 2.3592239273284576e-16 -0.07093151191541089
v -0.1267528285934684 0.015624999999999861 -0.05594964039594263
v 0.12209622099832626 0.01562500000000025 -0.07991107852599869
v -0.12588819467130852 0.031249999999999847 -0.04697007378535479
v 0.12296085492048615 0.031250000000000236 -0.07093151191541086
v -0.11344574219171878 0.03124999999999986 -0.048168145691857595
v -0.11431037611387868 0.015624999999999875 -0.05714771230244543
v -0.11344574219171874 -1.3877787807814457e-16 -0.04816814569185763
v -0.11171647434739894 -1.3877787807814457e-16 -0.03020901247068198
v -0.11085184042523905 0.015624999999999847 -0.021229445860094134
v -0.11171647434739898 0.031249999999999847 -0.030209012470681938
v 0.041220279880992985 0.015625000000000125 -0.07212361113373048
v 0.042084913803152865 0.03125000000000011 -0.06314404452314264
v 0.04381418164747267 0.0312500000000001 -0.04518491130196698
v 0.044678815569632595 0.015625000000000083 -0.03620534469137918
v 0.043814181647472715 9.71445146547012e-17 -0.04518491130196702
v 0.04208491380315291 1.1102230246251565e-16 -0.06314404452314266
v 0.12296085492048614 0.0375000000000002 -0.07093151191541085
v 0.04208491380315286 0.037500000000000075 -0.06314404452314262
v 0.043814181647472666 0.03750000000000006 -0.045184911301966973
v 0.12469012276480594 0.037500000000000186 -0.0529723786942352
vt 0.2865984375 0.546875
vt 0.2775734375 0.5625
vt 0.2685546875 0.546875
vt 0.4545296875 0.713671875
vt 0.4545296875 0.869921875
vt 0.4364859375 0.869921875
vt 0.4364859375 0.713671875
vt 0.4025734375 0.59375
vt 0.4115984375 0.609375
vt 0.3935546875 0.609375
vt 0.2775734375 0.53125
vt 0.2865984375 0.546875
vt 0.2685546875 0.546875
vt 0.59616875 0.713671875
vt 0.59616875 0.869921875
vt 0.578125 0.869921875
vt 0.578125 0.713671875
vt 0.4115984375 0.609375
vt 0.4025734375 0.625
vt 0.3935546875 0.609375
vt 0.2595359375 0.53125
vt 0.2775734375 0.53125
vt 0.2685546875 0.546875
vt 0.6301125 0.71171875
vt 0.6301125 0.86796875
vt 0.612075 0.86796875
vt 0.612075 0.71171875
vt 0.4025734375 0.625
vt 0.3845359375 0.625
vt 0.3935546875 0.609375
vt 0.2505109375 0.546875
vt 0.2595359375 0.53125
vt 0.2685546875 0.546875
vt 0.5234375 0.709765625
vt 0.5234375 0.866015625
vt 0.50539375 0.866015625
vt 0.50539375 0.709765625
vt 0.3845359375 0.625
vt 0.3755109375 0.609375
vt 0.3935546875 0.609375
vt 0.2595359375 0.5625
vt 0.2505109375 0.546875
vt 0.2685546875 0.546875
vt 0.4873421875 0.713671875
vt 0.4873421875 0.869921875
vt 0.4692984375 0.869921875
vt 0.4692984375 0.713671875
vt 0.3755109375 0.609375
vt 0.3845359375 0.59375
vt 0.3935546875 0.609375
vt 0.2775734375 0.5625
vt 0.2595359375 0.5625
vt 0.2685546875 0.546875
vt 0.5598000000000001 0.7109375
vt 0.5598000000000001 0.8671875
vt 0.5417624999999999 0.8671875
vt 0.5417624999999999 0.7109375
vt 0.3845359375 0.59375
vt 0.4025734375 0.59375
vt 0.3935546875 0.609375
vt 0.1435921875 0.748046875
vt 0.1435921875 0.760546875
vt 0.1255484375 0.760546875
vt 0.1255484375 0.748046875
vt 0.26953125 0.748046875
vt 0.26953125 0.760546875
vt 0.2514875 0.760546875
vt 0.2514875 0.748046875
vt 0.143784375 0.435546875
vt 0.143784375 0.44804687499999996
vt 0.125746875 0.44804687499999996
vt 0.125746875 0.435546875
vt 0.018043749999999997 0.435546875
vt 0.018043749999999997 0.44804687499999996
vt 0 0.44804687499999996
vt 0 0.435546875
vt 0.02484218750000001 0.748046875
vt 0.02484218750000001 0.760546875
vt 0.006798437499999997 0.760546875
vt 0.006798437499999997 0.748046875
vt 0.393784375 0.704296875
vt 0.393784375 0.716796875
vt 0.375746875 0.716796875
vt 0.375746875 0.704296875
vt 0.2290640625 0.49609375
vt 0.2290640625 0.41484374999999996
vt 0.24710781250000002 0.41484374999999996
vt 0.24710781250000002 0.49609375
vt 0.25 0.6875
vt 0.25 0.625
vt 0.3125 0.625
vt 0.3125 0.6875
vt 0.1982046875 0.49609375
vt 0.1982046875 0.41484374999999996
vt 0.2162484375 0.41484374999999996
vt 0.2162484375 0.49609375
vt 0.34765625 0.498046875
vt 0.34765625 0.41679687499999996
vt 0.3657 0.41679687499999996
vt 0.3657 0.498046875
vt 0.38160625000000004 0.5
vt 0.38160625000000004 0.41874999999999996
vt 0.39964374999999996 0.41874999999999996
vt 0.39964374999999996 0.5
vt 0.292503125 0.49609375
vt 0.292503125 0.41484374999999996
vt 0.310546875 0.41484374999999996
vt 0.310546875 0.49609375
vt 0.2533578125 0.41484374999999996
vt 0.2533578125 0.49609375
vt 0.24710781250000002 0.49609375
vt 0.24710781250000002 0.41484374999999996
vt 0.4375 1
vt 0.375 1
vt 0.375 0.9375
vt 0.4375 0.9375
vt 0.1919546875 0.49609375
vt 0.1919546875 0.41484374999999996
vt 0.1982046875 0.41484374999999996
vt 0.1982046875 0.49609375
vt 0.3845359375 0.5875
vt 0.4025734375 0.5875
vt 0.4025734375 0.59375
vt 0.3845359375 0.59375
vn -0.9953961983671789 -1.4538263271744835e-15 0.09584575252022433
vn 0.08300485652734989 0.49999999999999917 0.862038394616432
vn 0.9953961983671789 1.4538263271744835e-15 -0.09584575252022433
vn -0.9953961983671789 -1.4538263271744835e-15 0.09584575252022433
vn 0.08300485652735132 -0.5000000000000011 0.8620383946164306
vn 0.9953961983671789 1.4538263271744835e-15 -0.09584575252022433
vn -0.9953961983671789 -1.4538263271744835e-15 0.09584575252022433
vn 1.4513873441377983e-15 -1 -1.1435748260111012e-15
vn 0.9953961983671789 1.4538263271744835e-15 -0.09584575252022433
vn -0.9953961983671789 -1.4538263271744835e-15 0.09584575252022433
vn -0.08300485652734989 -0.49999999999999906 -0.8620383946164318
vn 0.9953961983671789 1.4538263271744835e-15 -0.09584575252022433
vn -0.9953961983671789 -1.4538263271744835e-15 0.09584575252022433
vn -0.08300485652735133 0.5000000000000007 -0.8620383946164306
vn 0.9953961983671789 1.4538263271744835e-15 -0.09584575252022433
vn -0.9953961983671789 -1.4538263271744835e-15 0.09584575252022433
vn -1.4513873441377983e-15 1 1.1435748260111012e-15
vn 0.9953961983671789 1.4538263271744835e-15 -0.09584575252022433
vn -0.08300485652735133 0.5000000000000007 -0.8620383946164306
vn -0.08300485652734989 -0.49999999999999906 -0.8620383946164318
vn 1.4513873441377983e-15 -1 -1.1435748260111012e-15
vn 0.08300485652735132 -0.5000000000000011 0.8620383946164306
vn 0.08300485652734989 0.49999999999999917 0.862038394616432
vn -1.4513873441377983e-15 1 1.1435748260111012e-15
vn -0.08300485652735133 0.5000000000000008 -0.8620383946164306
vn -1.4513873441377983e-15 1 1.1435748260111012e-15
vn 0.08300485652734989 0.49999999999999917 0.8620383946164318
vn 0.08300485652735132 -0.5000000000000011 0.8620383946164305
vn 1.4513873441377983e-15 -1 -1.1435748260111012e-15
vn -0.08300485652734989 -0.49999999999999906 -0.8620383946164318
vn -0.09584575252022427 1.1984419401493371e-15 -0.9953961983671789
vn -0.9953961983671789 -1.4538263271744835e-15 0.09584575252022433
vn 0.09584575252022427 -1.1984419401493371e-15 0.9953961983671789
vn 0.9953961983671789 1.4538263271744835e-15 -0.09584575252022433
usemtl m_a30386b5-ec70-e215-e821-a1a7de1c97ec
f 141/547/140 139/548/140 137/549/140
f 155/550/141 160/551/141 159/552/141 156/553/141
f 140/554/142 142/555/142 138/556/142
f 143/557/143 141/558/143 137/559/143
f 154/560/144 161/561/144 160/562/144 155/563/144
f 142/564/145 144/565/145 138/566/145
f 145/567/146 143/568/146 137/569/146
f 153/570/147 162/571/147 161/572/147 154/573/147
f 144/574/148 146/575/148 138/576/148
f 147/577/149 145/578/149 137/579/149
f 152/580/150 157/581/150 162/582/150 153/583/150
f 146/584/151 148/585/151 138/586/151
f 149/587/152 147/588/152 137/589/152
f 151/590/153 158/591/153 157/592/153 152/593/153
f 148/594/154 150/595/154 138/596/154
f 139/597/155 149/598/155 137/599/155
f 156/600/156 159/601/156 158/602/156 151/603/156
f 150/604/157 140/605/157 138/606/157
f 149/607/158 151/608/158 152/609/158 147/610/158
f 147/611/159 152/612/159 153/613/159 145/614/159
f 145/615/160 153/616/160 154/617/160 143/618/160
f 143/619/161 154/620/161 155/621/161 141/622/161
f 141/623/162 155/624/162 156/625/162 139/626/162
f 139/627/163 156/628/163 151/629/163 149/630/163
f 148/631/164 157/632/164 158/633/164 150/634/164
f 163/635/165 164/636/165 165/637/165 166/638/165
f 140/639/166 159/640/166 160/641/166 142/642/166
f 142/643/167 160/644/167 161/645/167 144/646/167
f 144/647/168 161/648/168 162/649/168 146/650/168
f 146/651/169 162/652/169 157/653/169 148/654/169
f 164/655/170 163/656/170 150/657/170 158/658/170
f 165/659/171 164/660/171 158/661/171 159/662/171
f 166/663/172 165/664/172 159/665/172 140/666/172
f 163/667/173 166/668/173 140/669/173 150/670/173
o green_magnit
v 0.6875 0.34374999999999994 5.551115123125783e-17
v 0.6875 0.34374999999999994 -0.015624999999999944
v 0.7004441738241592 0.37499999999999994 8.326672684688674e-17
v 0.7004441738241592 0.37499999999999994 -0.015624999999999917
v 0.71875 0.3566941738241592 8.326672684688674e-17
v 0.71875 0.3566941738241592 -0.015624999999999917
v 0.71875 0.3308058261758407 5.551115123125783e-17
v 0.71875 0.3308058261758407 -0.015624999999999944
v 0.7004441738241592 0.31249999999999994 5.551115123125783e-17
v 0.7004441738241592 0.31249999999999994 -0.015624999999999944
v 0.6745558261758408 0.31249999999999994 5.551115123125783e-17
v 0.6745558261758408 0.31249999999999994 -0.015624999999999944
v 0.65625 0.3308058261758407 5.551115123125783e-17
v 0.65625 0.3308058261758407 -0.015624999999999944
v 0.65625 0.3566941738241592 8.326672684688674e-17
v 0.65625 0.3566941738241592 -0.015624999999999917
v 0.6745558261758408 0.37499999999999994 8.326672684688674e-17
v 0.6745558261758408 0.37499999999999994 -0.015624999999999917
vt 0.7362314936421919 0.8268725530660009
vt 0.7728431459938734 0.8634842054176824
vt 0.7987314936421919 0.8009842054176824
vt 0.7533118959938734 0.8634842054176824
vt 0.7167002436421919 0.8268725530660009
vt 0.7362314936421919 0.8268725530660009
vt 0.7728431459938734 0.8634842054176824
vt 0.7728431459938734 0.6994217054176824
vt 0.7362314936421919 0.6628100530660009
vt 0.7987314936421919 0.6369217054176824
vt 0.7362314936421919 0.775095857769364
vt 0.7167002436421919 0.8268725530660009
vt 0.7987314936421919 0.8009842054176824
vt 0.7167002436421919 0.8268725530660009
vt 0.7167002436421919 0.775095857769364
vt 0.7362314936421919 0.775095857769364
vt 0.7362314936421919 0.8268725530660009
vt 0.7362314936421919 0.6628100530660009
vt 0.7362314936421919 0.611033357769364
vt 0.7987314936421919 0.6369217054176824
vt 0.7728431459938734 0.7384842054176824
vt 0.7167002436421919 0.775095857769364
vt 0.7987314936421919 0.8009842054176824
vt 0.7167002436421919 0.775095857769364
vt 0.7533118959938734 0.7384842054176824
vt 0.7728431459938734 0.7384842054176824
vt 0.7362314936421919 0.775095857769364
vt 0.7362314936421919 0.611033357769364
vt 0.7728431459938734 0.5744217054176824
vt 0.7987314936421919 0.6369217054176824
vt 0.8246198412905104 0.7384842054176824
vt 0.7533118959938734 0.7384842054176824
vt 0.7987314936421919 0.8009842054176824
vt 0.7533118959938734 0.7384842054176824
vt 0.8050885912905104 0.7384842054176824
vt 0.8246198412905104 0.7384842054176824
vt 0.7728431459938734 0.7384842054176824
vt 0.7728431459938734 0.5744217054176824
vt 0.8246198412905104 0.5744217054176824
vt 0.7987314936421919 0.6369217054176824
vt 0.8612314936421919 0.775095857769364
vt 0.8050885912905104 0.7384842054176824
vt 0.7987314936421919 0.8009842054176824
vt 0.8050885912905104 0.7384842054176824
vt 0.8417002436421919 0.775095857769364
vt 0.8612314936421919 0.775095857769364
vt 0.8246198412905104 0.7384842054176824
vt 0.8246198412905104 0.5744217054176824
vt 0.8612314936421919 0.611033357769364
vt 0.7987314936421919 0.6369217054176824
vt 0.8612314936421919 0.8268725530660009
vt 0.8417002436421919 0.775095857769364
vt 0.7987314936421919 0.8009842054176824
vt 0.8417002436421919 0.775095857769364
vt 0.8417002436421919 0.8268725530660009
vt 0.8612314936421919 0.8268725530660009
vt 0.8612314936421919 0.775095857769364
vt 0.8612314936421919 0.611033357769364
vt 0.8612314936421919 0.6628100530660009
vt 0.7987314936421919 0.6369217054176824
vt 0.8246198412905104 0.8634842054176824
vt 0.8417002436421919 0.8268725530660009
vt 0.7987314936421919 0.8009842054176824
vt 0.8417002436421919 0.8268725530660009
vt 0.8050885912905104 0.8634842054176824
vt 0.8246198412905104 0.8634842054176824
vt 0.8612314936421919 0.8268725530660009
vt 0.8612314936421919 0.6628100530660009
vt 0.8246198412905104 0.6994217054176824
vt 0.7987314936421919 0.6369217054176824
vt 0.7533118959938734 0.8634842054176824
vt 0.8050885912905104 0.8634842054176824
vt 0.7987314936421919 0.8009842054176824
vt 0.8050885912905104 0.8634842054176824
vt 0.7533118959938734 0.8634842054176824
vt 0.7728431459938734 0.8634842054176824
vt 0.8246198412905104 0.8634842054176824
vt 0.8246198412905104 0.6994217054176824
vt 0.7728431459938734 0.6994217054176824
vt 0.7987314936421919 0.6369217054176824
vn 0 -2.220446049250313e-16 1
vn 0.7071067811865476 0.7071067811865476 1.5700924586837752e-16
vn 0 2.220446049250313e-16 -1
vn 0 -2.220446049250313e-16 1
vn 1 0 0
vn 0 2.220446049250313e-16 -1
vn 0 -2.220446049250313e-16 1
vn 0.7071067811865476 -0.7071067811865476 -1.5700924586837752e-16
vn 0 2.220446049250313e-16 -1
vn 0 -2.220446049250313e-16 1
vn 0 -1 -2.220446049250313e-16
vn 0 2.220446049250313e-16 -1
vn 0 -2.220446049250313e-16 1
vn -0.7071067811865476 -0.7071067811865476 -1.5700924586837752e-16
vn 0 2.220446049250313e-16 -1
vn 0 -2.220446049250313e-16 1
vn -1 0 0
vn 0 2.220446049250313e-16 -1
vn 0 -2.220446049250313e-16 1
vn -0.7071067811865476 0.7071067811865476 1.5700924586837752e-16
vn 0 2.220446049250313e-16 -1
vn 0 -2.220446049250313e-16 1
vn 0 1 2.220446049250313e-16
vn 0 2.220446049250313e-16 -1
usemtl m_b4243923-e713-8489-b05c-2f58d26539df
f 171/671/174 169/672/174 167/673/174
f 169/674/175 171/675/175 172/676/175 170/677/175
f 170/678/176 172/679/176 168/680/176
f 173/681/177 171/682/177 167/683/177
f 171/684/178 173/685/178 174/686/178 172/687/178
f 172/688/179 174/689/179 168/690/179
f 175/691/180 173/692/180 167/693/180
f 173/694/181 175/695/181 176/696/181 174/697/181
f 174/698/182 176/699/182 168/700/182
f 177/701/183 175/702/183 167/703/183
f 175/704/184 177/705/184 178/706/184 176/707/184
f 176/708/185 178/709/185 168/710/185
f 179/711/186 177/712/186 167/713/186
f 177/714/187 179/715/187 180/716/187 178/717/187
f 178/718/188 180/719/188 168/720/188
f 181/721/189 179/722/189 167/723/189
f 179/724/190 181/725/190 182/726/190 180/727/190
f 180/728/191 182/729/191 168/730/191
f 183/731/192 181/732/192 167/733/192
f 181/734/193 183/735/193 184/736/193 182/737/193
f 182/738/194 184/739/194 168/740/194
f 169/741/195 183/742/195 167/743/195
f 183/744/196 169/745/196 170/746/196 184/747/196
f 184/748/197 170/749/197 168/750/197
o red_magnit
v -0.640625 0.625 1.1102230246251565e-16
v -0.640625 0.625 -0.015624999999999889
v -0.6276808261758408 0.65625 1.3877787807814457e-16
v -0.6276808261758408 0.65625 -0.015624999999999861
v -0.609375 0.6379441738241592 1.3877787807814457e-16
v -0.609375 0.6379441738241592 -0.015624999999999861
v -0.609375 0.6120558261758408 1.1102230246251565e-16
v -0.609375 0.6120558261758408 -0.015624999999999889
v -0.6276808261758408 0.59375 1.1102230246251565e-16
v -0.6276808261758408 0.59375 -0.015624999999999889
v -0.6535691738241592 0.59375 1.1102230246251565e-16
v -0.6535691738241592 0.59375 -0.015624999999999889
v -0.671875 0.6120558261758408 1.1102230246251565e-16
v -0.671875 0.6120558261758408 -0.015624999999999889
v -0.671875 0.6379441738241592 1.3877787807814457e-16
v -0.671875 0.6379441738241592 -0.015624999999999861
v -0.6535691738241592 0.65625 1.3877787807814457e-16
v -0.6535691738241592 0.65625 -0.015624999999999861
vt 0.0217300880216659 0.9412405863675586
vt 0.057144665286910784 0.9770515853095585
vt 0.08246384344180158 0.9159968511638583
vt 0.057144665286910784 0.9770515853095585
vt 0.0217300880216659 0.9412405863675586
vt 0.022641630211809094 0.9423474047634046
vt 0.06048082381616243 0.9806088934108899
vt 0.08838750000000006 0.625
vt 0.125 0.6616124999999999
vt 0.0625 0.6875
vt 0.0228622399327984 0.8905921876615941
vt 0.0217300880216659 0.9412405863675586
vt 0.08246384344180158 0.9159968511638583
vt 0.0217300880216659 0.9412405863675586
vt 0.0228622399327984 0.8905921876615941
vt 0.023837914844306585 0.8882326638577003
vt 0.022641630211809094 0.9423474047634046
vt 0.125 0.6616124999999999
vt 0.125 0.7133875000000001
vt 0.0625 0.6875
vt 0.05869732149653112 0.8566602833375361
vt 0.0228622399327984 0.8905921876615941
vt 0.08246384344180158 0.9159968511638583
vt 0.0228622399327984 0.8905921876615941
vt 0.05869732149653112 0.8566602833375361
vt 0.06202464768680996 0.8521116948244042
vt 0.023837914844306585 0.8882326638577003
vt 0.125 0.7133875000000001
vt 0.08838750000000006 0.75
vt 0.0625 0.6875
vt 0.10646393657805214 0.8581229621718185
vt 0.05869732149653112 0.8566602833375361
vt 0.08246384344180158 0.9159968511638583
vt 0.05869732149653112 0.8566602833375361
vt 0.10646393657805214 0.8581229621718185
vt 0.1128124935941116 0.8537725259107531
vt 0.06202464768680996 0.8521116948244042
vt 0.08838750000000006 0.75
vt 0.03661249999999994 0.75
vt 0.0625 0.6875
vt 0.13931932408028547 0.8923651048937906
vt 0.10646393657805214 0.8581229621718185
vt 0.08246384344180158 0.9159968511638583
vt 0.10646393657805214 0.8581229621718185
vt 0.13931932408028547 0.8923651048937906
vt 0.14774348758545008 0.8902483498016736
vt 0.1128124935941116 0.8537725259107531
vt 0.03661249999999994 0.75
vt 0 0.7133875000000001
vt 0.0625 0.6875
vt 0.1397399182330511 0.9404102783392265
vt 0.13931932408028547 0.8923651048937906
vt 0.08246384344180158 0.9159968511638583
vt 0.13931932408028547 0.8923651048937906
vt 0.1397399182330511 0.9404102783392265
vt 0.1483066766842165 0.9414017486908851
vt 0.14774348758545008 0.8902483498016736
vt 0 0.7133875000000001
vt 0 0.6616124999999999
vt 0.0625 0.6875
vt 0.10646167739771806 0.9759109229615384
vt 0.1397399182330511 0.9404102783392265
vt 0.08246384344180158 0.9159968511638583
vt 0.1397399182330511 0.9404102783392265
vt 0.10646167739771806 0.9759109229615384
vt 0.11302510832336748 0.9793082316621637
vt 0.1483066766842165 0.9414017486908851
vt 0 0.6616124999999999
vt 0.03661249999999994 0.625
vt 0.0625 0.6875
vt 0.057144665286910784 0.9770515853095585
vt 0.10646167739771806 0.9759109229615384
vt 0.08246384344180158 0.9159968511638583
vt 0.10646167739771806 0.9759109229615384
vt 0.057144665286910784 0.9770515853095585
vt 0.06048082381616243 0.9806088934108899
vt 0.11302510832336748 0.9793082316621637
vt 0.03661249999999994 0.625
vt 0.08838750000000006 0.625
vt 0.0625 0.6875
vn 0 -2.220446049250313e-16 1
vn 0.7071067811865476 0.7071067811865476 1.5700924586837752e-16
vn 0 2.220446049250313e-16 -1
vn 0 -2.220446049250313e-16 1
vn 1 0 0
vn 0 2.220446049250313e-16 -1
vn 0 -2.220446049250313e-16 1
vn 0.7071067811865476 -0.7071067811865476 -1.5700924586837752e-16
vn 0 2.220446049250313e-16 -1
vn 0 -2.220446049250313e-16 1
vn 0 -1 -2.220446049250313e-16
vn 0 2.220446049250313e-16 -1
vn 0 -2.220446049250313e-16 1
vn -0.7071067811865476 -0.7071067811865476 -1.5700924586837752e-16
vn 0 2.220446049250313e-16 -1
vn 0 -2.220446049250313e-16 1
vn -1 0 0
vn 0 2.220446049250313e-16 -1
vn 0 -2.220446049250313e-16 1
vn -0.7071067811865476 0.7071067811865476 1.5700924586837752e-16
vn 0 2.220446049250313e-16 -1
vn 0 -2.220446049250313e-16 1
vn 0 1 2.220446049250313e-16
vn 0 2.220446049250313e-16 -1
usemtl m_b4243923-e713-8489-b05c-2f58d26539df
f 189/751/198 187/752/198 185/753/198
f 187/754/199 189/755/199 190/756/199 188/757/199
f 188/758/200 190/759/200 186/760/200
f 191/761/201 189/762/201 185/763/201
f 189/764/202 191/765/202 192/766/202 190/767/202
f 190/768/203 192/769/203 186/770/203
f 193/771/204 191/772/204 185/773/204
f 191/774/205 193/775/205 194/776/205 192/777/205
f 192/778/206 194/779/206 186/780/206
f 195/781/207 193/782/207 185/783/207
f 193/784/208 195/785/208 196/786/208 194/787/208
f 194/788/209 196/789/209 186/790/209
f 197/791/210 195/792/210 185/793/210
f 195/794/211 197/795/211 198/796/211 196/797/211
f 196/798/212 198/799/212 186/800/212
f 199/801/213 197/802/213 185/803/213
f 197/804/214 199/805/214 200/806/214 198/807/214
f 198/808/215 200/809/215 186/810/215
f 201/811/216 199/812/216 185/813/216
f 199/814/217 201/815/217 202/816/217 200/817/217
f 200/818/218 202/819/218 186/820/218
f 187/821/219 201/822/219 185/823/219
f 201/824/220 187/825/220 188/826/220 202/827/220
f 202/828/221 188/829/221 186/830/221
o sticker
v -0.6058852241388057 0.4951553559374491 -0.036384359229049826
v -0.6067524785060142 0.4916769886569239 -0.03126465895224361
v -0.7271721899233053 0.5253955928874076 -0.036384359229049826
v -0.7280394442905137 0.5219172256068824 -0.031264658952243604
v -0.5870701741945404 0.5706183995174332 -0.006249999999999925
v -0.70835713997904 0.6008586364673917 -0.006249999999999921
v -0.5976281068330251 0.5282728445934428 -0.012485341047756268
v -0.7189150726175247 0.5585130815434013 -0.012485341047756265
v -0.70835713997904 0.6008586364673917 8.500145032286355e-17
v -0.7197823269847331 0.5550347142628763 -0.0073656407709500014
v -0.5870701741945404 0.5706183995174332 8.153200337090993e-17
v -0.5984953612002335 0.5247944773129178 -0.007365640770950005
v -0.5769900952112209 0.6110473881122664 8.500145032286355e-17
v -0.6982770609957205 0.6412876250622248 -0.006249999999999916
v -0.5769900952112209 0.6110473881122664 -0.00624999999999992
v -0.6982770609957205 0.6412876250622248 9.020562075079397e-17
vt 0.078125 0.26171875
vt 0.078125 0.22005208333333326
vt 0.203125 0.22005208333333326
vt 0.203125 0.26171875
vt 0.078125 0.26171875
vt 0.078125 0.22005208333333326
vt 0.203125 0.22005208333333326
vt 0.203125 0.26171875
vt 0.078125 0.13671875
vt 0.203125 0.13671875
vt 0.203125 0.26171875
vt 0.078125 0.26171875
vt 0.33984375 0.1328125
vt 0.33984375 0.17447916666666674
vt 0.21484375 0.17447916666666674
vt 0.21484375 0.1328125
vt 0.078125 0.26171875
vt 0.078125 0.22005208333333326
vt 0.203125 0.22005208333333326
vt 0.203125 0.26171875
vt 0.21484375 0.2578125
vt 0.21484375 0.21614583333333337
vt 0.33984375 0.21614583333333337
vt 0.33984375 0.2578125
vt 0.21484375 0.21614583333333337
vt 0.21484375 0.17447916666666674
vt 0.33984375 0.17447916666666674
vt 0.33984375 0.21614583333333337
vt 0.203125 0.13671875
vt 0.203125 0.17838541666666663
vt 0.078125 0.17838541666666663
vt 0.078125 0.13671875
vt 0.203125 0.17838541666666663
vt 0.203125 0.22005208333333326
vt 0.078125 0.22005208333333326
vt 0.078125 0.17838541666666663
vt 0.203125 0.13671875
vt 0.203125 0.17838541666666663
vt 0.078125 0.17838541666666663
vt 0.078125 0.13671875
vt 0.203125 0.17838541666666663
vt 0.203125 0.22005208333333326
vt 0.078125 0.22005208333333326
vt 0.078125 0.17838541666666663
vt 0.203125 0.13671875
vt 0.203125 0.17838541666666663
vt 0.078125 0.17838541666666663
vt 0.078125 0.13671875
vt 0.203125 0.17838541666666663
vt 0.203125 0.22005208333333326
vt 0.078125 0.22005208333333326
vt 0.078125 0.17838541666666663
vt 0.203125 0.13671875
vt 0.203125 0.26171875
vt 0.078125 0.26171875
vt 0.078125 0.13671875
vn 0.9702957262759966 -0.2419218955996677 -2.962688750897932e-17
vn -0.9702957262759966 0.2419218955996677 2.962688750897932e-17
vn -0.19817081533873682 -0.7948197277438585 -0.5735764363510403
vn 0.13876069875334762 0.556538764884038 -0.8191520442889906
vn -0.13876069875334715 -0.5565387648840361 0.8191520442889918
vn -6.162975822039156e-33 1.2246467991473532e-16 -1
vn 0.034217133658949656 0.137237427279563 -0.989947006823018
vn -0.9702957262759966 0.2419218955996677 2.962688750897932e-17
vn -0.9702957262759966 0.2419218955996677 2.962688750897932e-17
vn 6.162975822039156e-33 -1.2246467991473532e-16 1
vn -0.037280246899554885 -0.14952290346224367 0.9880552031801305
vn 0.9702957262759966 -0.2419218955996677 -2.962688750897932e-17
vn 0.9702957262759966 -0.2419218955996677 -2.962688750897932e-17
vn 0.24192189559966765 0.9702957262759965 1.1882695554102554e-16
usemtl m_b4243923-e713-8489-b05c-2f58d26539df
f 203/831/222 209/832/222 214/833/222 204/834/222
f 206/835/223 212/836/223 210/837/223 205/838/223
f 205/839/224 203/840/224 204/841/224 206/842/224
f 205/843/225 210/844/225 209/845/225 203/846/225
f 204/847/226 214/848/226 212/849/226 206/850/226
f 217/851/227 207/852/227 208/853/227 216/854/227
f 207/855/228 209/856/228 210/857/228 208/858/228
f 216/859/229 208/860/229 211/861/229 218/862/229
f 208/863/230 210/864/230 212/865/230 211/866/230
f 218/867/231 211/868/231 213/869/231 215/870/231
f 211/871/232 212/872/232 214/873/232 213/874/232
f 215/875/233 213/876/233 207/877/233 217/878/233
f 213/879/234 214/880/234 209/881/234 207/882/234
f 215/883/235 217/884/235 216/885/235 218/886/235