# Made in Blockbench 4.9.4
mtllib robosos.mtl

o robosos
v 0 0 0
v 0.13397459621556132 0 0.49999999999999994
v 0.13397459621556132 0.1875 0.49999999999999994
v 0.3660254037844386 0 0.36602540378443865
v 0.3660254037844386 0.1875 0.36602540378443865
v 0.49999999999999994 0 0.13397459621556132
v 0.49999999999999994 0.1875 0.13397459621556132
v 0.49999999999999994 0 -0.13397459621556138
v 0.49999999999999994 0.1875 -0.13397459621556138
v 0.36602540378443865 0 -0.3660254037844386
v 0.36602540378443865 0.1875 -0.3660254037844386
v 0.1339745962155615 0 -0.4999999999999999
v 0.1339745962155615 0.1875 -0.4999999999999999
v 0.06698737448593337 0.1875 -0.2500002850471461
v 0.18301291056121288 0.1875 -0.18301291056121285
v 0.25000028504714616 0.1875 -0.06698737448593331
v 0.25000028504714616 0.1875 0.06698737448593328
v 0.18301291056121285 0.1875 0.18301291056121288
v 0.06698737448593328 0.1875 0.25000028504714616
v 0.12912173911988922 0.1875 -0.48188889075707986
v 0.12912173911988906 0.1875 0.4818888907570799
v 0.35276715163719086 0.1875 0.35276715163719086
v 0.4818888907570799 0.1875 0.12912173911988906
v 0.4818888907570799 0.1875 -0.1291217391198891
v 0.35276715163719086 0.1875 -0.35276715163719086
v 0.12912173911988922 0.19374999999999992 -0.48188889075707986
v 0.12912173911988906 0.19374999999999992 0.4818888907570799
v 0.35276715163719086 0.19374999999999992 0.35276715163719086
v 0.4818888907570799 0.19374999999999992 0.12912173911988906
v 0.4818888907570799 0.19374999999999992 -0.1291217391198891
v 0.35276715163719086 0.19374999999999992 -0.35276715163719086
v 0.13397459621556132 0.19374999999999992 0.49999999999999994
v 0.3660254037844386 0.19374999999999992 0.36602540378443865
v 0.49999999999999994 0.19374999999999992 0.13397459621556132
v 0.49999999999999994 0.19374999999999992 -0.13397459621556138
v 0.36602540378443865 0.19374999999999992 -0.3660254037844386
v 0.1339745962155615 0.19374999999999992 -0.4999999999999999
v 0.014558571287016807 0.1875 -0.05433332772876008
v 0.0397747564417433 0.1875 -0.039774756441743296
v 0.054333327728760095 0.1875 -0.014558571287016797
v 0.054333327728760095 0.1875 0.01455857128701679
v 0.039774756441743296 0.1875 0.0397747564417433
v 0.01455857128701679 0.1875 0.054333327728760095
v 0 0.19999999999999996 0
v 0.014558571287016807 0.19999999999999996 -0.05433332772876008
v 0.01455857128701679 0.19999999999999996 0.054333327728760095
v 0.039774756441743296 0.19999999999999996 0.0397747564417433
v 0.054333327728760095 0.19999999999999996 0.01455857128701679
v 0.054333327728760095 0.19999999999999996 -0.014558571287016797
v 0.0397747564417433 0.19999999999999996 -0.039774756441743296
v -0.1339745962155613 0 0.49999999999999994
v -0.1339745962155613 0.1875 0.49999999999999994
v -0.3660254037844387 0 0.36602540378443854
v -0.3660254037844387 0.1875 0.36602540378443854
v -0.5 0 0.1339745962155611
v -0.5 0.1875 0.1339745962155611
v -0.49999999999999994 0 -0.13397459621556126
v -0.49999999999999994 0.1875 -0.13397459621556126
v -0.3660254037844386 0 -0.3660254037844387
v -0.3660254037844386 0.1875 -0.3660254037844387
v -0.13397459621556113 0 -0.5
v -0.13397459621556113 0.1875 -0.5
v -0.06698722172962794 0.1875 -0.2499997149528538
v -0.18301291056121285 0.1875 -0.1830129105612129
v -0.25000028504714616 0.1875 -0.06698737448593325
v -0.2500002850471462 0.1875 0.06698737448593317
v -0.1830129105612129 0.1875 0.18301291056121283
v -0.06698737448593327 0.1875 0.25000028504714616
v -0.12912172805353173 0.1875 -0.4818888494568728
v -0.12912173911988903 0.1875 0.4818888907570799
v -0.3527671516371909 0.1875 0.3527671516371908
v -0.48188889075707997 0.1875 0.12912173911988883
v -0.4818888907570799 0.1875 -0.129121739119889
v -0.35276715163719086 0.1875 -0.3527671516371909
v -0.12912172805353173 0.19374999999999992 -0.4818888494568728
v -0.12912173911988903 0.19374999999999992 0.4818888907570799
v -0.3527671516371909 0.19374999999999992 0.3527671516371908
v -0.48188889075707997 0.19374999999999992 0.12912173911988883
v -0.4818888907570799 0.19374999999999992 -0.129121739119889
v -0.35276715163719086 0.19374999999999992 -0.3527671516371909
v -0.1339745962155613 0.19374999999999992 0.49999999999999994
v -0.3660254037844387 0.19374999999999992 0.36602540378443854
v -0.5 0.19374999999999992 0.1339745962155611
v -0.49999999999999994 0.19374999999999992 -0.13397459621556126
v -0.3660254037844386 0.19374999999999992 -0.3660254037844387
v -0.13397459621556113 0.19374999999999992 -0.5
v -0.01455853808802104 0.1875 -0.05433320382842127
v -0.039774756441743296 0.1875 -0.03977475644174331
v -0.054333327728760095 0.1875 -0.014558571287016785
v -0.0543333277287601 0.1875 0.014558571287016766
v -0.03977475644174331 0.1875 0.03977475644174329
v -0.014558571287016786 0.1875 0.054333327728760095
v -0.01455853808802104 0.19999999999999996 -0.05433320382842127
v -0.014558571287016786 0.19999999999999996 0.054333327728760095
v -0.03977475644174331 0.19999999999999996 0.03977475644174329
v -0.0543333277287601 0.19999999999999996 0.014558571287016766
v -0.054333327728760095 0.19999999999999996 -0.014558571287016785
v -0.039774756441743296 0.19999999999999996 -0.03977475644174331
vt 0.1830125 0.5
vt 0.3169875 0.5
vt 0.25 0.75
vt 0.634184375 0.90625
vt 0.768159375 0.90625
vt 0.768159375 1
vt 0.634184375 1
vt 0.05935996093750001 0.380859375
vt 0.059473700377844496 0.3804348949091454
vt 0.06552629988152406 0.3804348958771191
vt 0.06564003906249999 0.380859375
vt 0.3169875 1
vt 0.1830125 1
vt 0.25 0.75
vt 0.63427734375 0.90625
vt 0.76806640625 0.90625
vt 0.76806640625 1
vt 0.63427734375 1
vt 0.4330125 0.9330125
vt 0.3169875 1
vt 0.25 0.75
vt 0.76806640625 0.90625
vt 0.900390625 0.90625
vt 0.900390625 1
vt 0.76806640625 1
vt 0.5 0.8169875
vt 0.4330125 0.9330125
vt 0.25 0.75
vt 0.5021625 0.90625
vt 0.634184375 0.90625
vt 0.634184375 1
vt 0.5021625 1
vt 0.07421875 0.36600058593749996
vt 0.07379426990914548 0.3661143253778445
vt 0.07076797099559501 0.36087265400440494
vt 0.07107871093749998 0.36056191406250004
vt 0.5 0.6830125
vt 0.5 0.8169875
vt 0.25 0.75
vt 0.634184375 0.90625
vt 0.768159375 0.90625
vt 0.768159375 1
vt 0.634184375 1
vt 0.07421875 0.37228066406250004
vt 0.07379426990914548 0.3721669246221555
vt 0.07379427087711904 0.36611432511847597
vt 0.07421875 0.36600058593749996
vt 0.4330125 0.5669875
vt 0.5 0.6830125
vt 0.25 0.75
vt 0.768159375 0.90625
vt 0.90018125 0.90625
vt 0.90018125 1
vt 0.768159375 1
vt 0.07107871093749998 0.37771933593749996
vt 0.07076797028698995 0.3774085952869899
vt 0.07379427087711904 0.37216692488152403
vt 0.07421875 0.37228066406250004
vt 0.3169875 0.5
vt 0.4330125 0.5669875
vt 0.25 0.75
vt 0.5021625 0.90625
vt 0.634184375 0.90625
vt 0.634184375 1
vt 0.5021625 1
vt 0.06564003906249999 0.380859375
vt 0.06552629962215553 0.3804348949091454
vt 0.07076797099559501 0.37740859599559506
vt 0.07107871093749998 0.37771933593749996
vt 0.07107871093749998 0.36056191406250004
vt 0.07076797028698995 0.3608726547130101
vt 0.06552629988152406 0.3578463541228809
vt 0.06564003906249999 0.357421875
vt 0.06564003906249999 0.357421875
vt 0.06552629962215553 0.3578463550908546
vt 0.05947370011847597 0.3578463541228809
vt 0.05935996093750001 0.357421875
vt 0.6489707090170872 0.3396666019142106
vt 0.6635293075824606 0.33966666386438005
vt 0.6897437881891914 0.43750014252357305
vt 0.6227562881891914 0.43749985747642695
vt 0.6635292909829128 0.3396666019142106
vt 0.6761373562819194 0.3323873562819194
vt 0.7477563543343817 0.4040063543343817
vt 0.6897437118108086 0.43749985747642695
vt 0.6761373109312979 0.3323873109312979
vt 0.68341666386438 0.31977930758246065
vt 0.781250142523573 0.34599378818919135
vt 0.7477561456656183 0.4040061456656183
vt 0.6834166019142106 0.3197792909829128
vt 0.68341666386438 0.30522069241753935
vt 0.781250142523573 0.27900621181080865
vt 0.781249857476427 0.3459937118108086
vt 0.6834166019142106 0.3052207090170872
vt 0.6761373562819194 0.2926126437180806
vt 0.7477563543343817 0.2209936456656183
vt 0.781249857476427 0.2790062881891914
vt 0.6761373109312979 0.2926126890687021
vt 0.6635293075824606 0.28533333613561995
vt 0.6897437881891914 0.18749985747642695
vt 0.7477561456656183 0.22099385433438168
vt 0.6635292909829128 0.2853333980857894
vt 0.6489706924175394 0.28533333613561995
vt 0.6227562118108086 0.18749985747642695
vt 0.6897437118108086 0.18750014252357305
vt 0.6897437881891914 0.43750014252357305
vt 0.7208110641391797 0.55344444537854
vt 0.5916889413940155 0.5534444247284365
vt 0.6227562881891914 0.43749985747642695
vt 0.6227562118108086 0.18749985747642695
vt 0.5916889358608203 0.07155555462146002
vt 0.7208110586059845 0.07155557527156353
vt 0.6897437118108086 0.18750014252357305
vt 0.6897437881891914 0.18749985747642695
vt 0.7208110641391797 0.07155555462146002
vt 0.8326333661224519 0.13611663387754813
vt 0.7477561456656183 0.22099385433438168
vt 0.7477563543343817 0.2209936456656183
vt 0.8326333812393603 0.13611661876063974
vt 0.8971944247284365 0.2479389413940155
vt 0.781249857476427 0.2790062881891914
vt 0.781250142523573 0.27900621181080865
vt 0.89719444537854 0.24793893586082028
vt 0.8971944247284365 0.3770610586059845
vt 0.781249857476427 0.3459937118108086
vt 0.781250142523573 0.34599378818919135
vt 0.89719444537854 0.3770610641391797
vt 0.8326333661224519 0.48888336612245187
vt 0.7477561456656183 0.4040061456656183
vt 0.7477563543343817 0.4040063543343817
vt 0.8326333812393603 0.48888338123936026
vt 0.7208110586059845 0.5534444247284365
vt 0.6897437118108086 0.43749985747642695
vt 0.025177726770541673 0.3582899305555556
vt 0.0162487436112377 0.3582899305555556
vt 0.0162487436112377 0.3559027777777778
vt 0.025177726770541673 0.3559027777777778
vt 0.027674591851683018 0.3559027777777778
vt 0.018409783148316934 0.3559027777777778
vt 0.018409783148316934 0.353515625
vt 0.027674591851683018 0.353515625
vt 0.029499805844700147 0.3582899305555556
vt 0.020570822685396166 0.3582899305555556
vt 0.020570822685396166 0.3559027777777778
vt 0.029499805844700147 0.3559027777777778
vt 0.03199667092584149 0.3582899305555556
vt 0.022731862222475398 0.3582899305555556
vt 0.022731862222475398 0.3559027777777778
vt 0.03199667092584149 0.3559027777777778
vt 0.033821884918858604 0.36306423611111116
vt 0.02489290175955463 0.36306423611111116
vt 0.02489290175955463 0.36067708333333337
vt 0.033821884918858604 0.36067708333333337
vt 0.034157710462920716 0.36067708333333337
vt 0.02489290175955463 0.36067708333333337
vt 0.02489290175955463 0.3582899305555556
vt 0.034157710462920716 0.3582899305555556
vt 0.033821884918858604 0.36545138888888884
vt 0.02489290175955463 0.36545138888888884
vt 0.02489290175955463 0.36306423611111116
vt 0.033821884918858604 0.36306423611111116
vt 0.036318749999999955 0.36545138888888884
vt 0.027053941296633865 0.36545138888888884
vt 0.027053941296633865 0.36306423611111116
vt 0.036318749999999955 0.36306423611111116
vt 0.033821884918858604 0.3702256944444444
vt 0.02489290175955463 0.3702256944444444
vt 0.02489290175955463 0.36783854166666663
vt 0.033821884918858604 0.36783854166666663
vt 0.034157710462920716 0.3702256944444444
vt 0.02489290175955463 0.3702256944444444
vt 0.02489290175955463 0.36783854166666663
vt 0.034157710462920716 0.36783854166666663
vt 0.029499805844700147 0.375
vt 0.020570822685396166 0.375
vt 0.020570822685396166 0.3726128472222222
vt 0.029499805844700147 0.3726128472222222
vt 0.03199667092584149 0.375
vt 0.022731862222475398 0.375
vt 0.022731862222475398 0.3726128472222222
vt 0.03199667092584149 0.3726128472222222
vt 0.027338766307620905 0.375
vt 0.018409783148316934 0.375
vt 0.018409783148316934 0.3726128472222222
vt 0.027338766307620905 0.3726128472222222
vt 0.027674591851683018 0.375
vt 0.018409783148316934 0.375
vt 0.018409783148316934 0.3726128472222222
vt 0.027674591851683018 0.3726128472222222
vt 0.9317832090170877 0.6062681644142106
vt 0.9390625000000005 0.5791015625
vt 0.9463418075824611 0.60626822636438
vt 0.9463417909829133 0.6062681644142106
vt 0.9390625000000005 0.5791015625
vt 0.9589498562819199 0.5989889187819194
vt 0.9589498109312984 0.5989888734312979
vt 0.9390625000000005 0.5791015625
vt 0.9662291638643805 0.5863808700824606
vt 0.9662291019142111 0.5863808534829128
vt 0.9390625000000005 0.5791015625
vt 0.9662291638643805 0.5718222549175394
vt 0.9662291019142111 0.5718222715170872
vt 0.9390625000000005 0.5791015625
vt 0.9589498562819199 0.5592142062180806
vt 0.9589498109312984 0.5592142515687021
vt 0.9390625000000005 0.5791015625
vt 0.9463418075824611 0.55193489863562
vt 0.9463417909829133 0.5519349605857894
vt 0.9390625000000005 0.5791015625
vt 0.9317831924175398 0.55193489863562
vt 0.588775 0.634765625
vt 0.5860113184779643 0.634765625
vt 0.5860113184779643 0.6318359375
vt 0.588775 0.6318359375
vt 0.5828418065220358 0.6318359375
vt 0.580078125 0.6318359375
vt 0.580078125 0.62890625
vt 0.5828418065220358 0.62890625
vt 0.588775 0.6318359375
vt 0.5860113184779643 0.6318359375
vt 0.5860113184779643 0.62890625
vt 0.588775 0.62890625
vt 0.588775 0.6318359375
vt 0.5860113184779643 0.6318359375
vt 0.5860113184779643 0.62890625
vt 0.588775 0.62890625
vt 0.588775 0.6318359375
vt 0.5860113184779643 0.6318359375
vt 0.5860113184779643 0.62890625
vt 0.588775 0.62890625
vt 0.588775 0.634765625
vt 0.5860113184779643 0.634765625
vt 0.5860113184779643 0.6318359375
vt 0.588775 0.6318359375
vt 0.588775 0.634765625
vt 0.5860113184779643 0.634765625
vt 0.5860113184779643 0.6318359375
vt 0.588775 0.6318359375
vt 0.1830125 1
vt 0.0669875 0.9330125
vt 0.25 0.75
vt 0.501953125 0.90625
vt 0.63427734375 0.90625
vt 0.63427734375 1
vt 0.501953125 1
vt 0.0669875 0.9330125
vt 0 0.8169875
vt 0.25 0.75
vt 0.768159375 0.90625
vt 0.90018125 0.90625
vt 0.90018125 1
vt 0.768159375 1
vt 0.0539212890625 0.36056191406250004
vt 0.05423202971301007 0.3608726547130101
vt 0.05120572912288093 0.36611432511847597
vt 0.05078125 0.36600058593749996
vt 0 0.8169875
vt 0 0.6830125
vt 0.25 0.75
vt 0.634184375 0.90625
vt 0.768159375 0.90625
vt 0.768159375 1
vt 0.634184375 1
vt 0.05078125 0.36600058593749996
vt 0.05120573009085454 0.3661143253778445
vt 0.05120572912288093 0.37216692488152403
vt 0.05078125 0.37228066406250004
vt 0 0.6830125
vt 0.0669875 0.5669875
vt 0.25 0.75
vt 0.5021625 0.90625
vt 0.634184375 0.90625
vt 0.634184375 1
vt 0.5021625 1
vt 0.05078125 0.37228066406250004
vt 0.05120573009085454 0.3721669246221555
vt 0.05423202900440499 0.37740859599559506
vt 0.0539212890625 0.37771933593749996
vt 0.0669875 0.5669875
vt 0.1830125 0.5
vt 0.25 0.75
vt 0.768159375 0.90625
vt 0.90018125 0.90625
vt 0.90018125 1
vt 0.768159375 1
vt 0.0539212890625 0.37771933593749996
vt 0.05423202971301007 0.3774085952869899
vt 0.05947370011847597 0.3804348958771191
vt 0.05935996093750001 0.380859375
vt 0.05935996093750001 0.357421875
vt 0.059473700377844496 0.3578463550908546
vt 0.05423202900440499 0.36087265400440494
vt 0.0539212890625 0.36056191406250004
vt 0.6363626890687021 0.3323873109312979
vt 0.6489706924175394 0.33966666386438005
vt 0.6227562118108086 0.43750014252357305
vt 0.5647438543343817 0.4040061456656183
vt 0.6290833980857894 0.3197792909829128
vt 0.6363626437180806 0.3323873562819194
vt 0.5647436456656183 0.4040063543343817
vt 0.531250142523573 0.3459937118108086
vt 0.6290833980857894 0.3052207090170872
vt 0.62908333613562 0.31977930758246065
vt 0.531249857476427 0.34599378818919135
vt 0.531250142523573 0.2790062881891914
vt 0.6363626890687021 0.2926126890687021
vt 0.62908333613562 0.30522069241753935
vt 0.531249857476427 0.27900621181080865
vt 0.5647438543343817 0.22099385433438168
vt 0.6489707090170872 0.2853333980857894
vt 0.6363626437180806 0.2926126437180806
vt 0.5647436456656183 0.2209936456656183
vt 0.6227562881891914 0.18750014252357305
vt 0.5647436456656183 0.2209936456656183
vt 0.4798666187606398 0.13611661876063974
vt 0.5916889413940155 0.07155557527156353
vt 0.6227562881891914 0.18750014252357305
vt 0.531249857476427 0.27900621181080865
vt 0.41530555462146 0.24793893586082028
vt 0.4798666338775481 0.13611663387754813
vt 0.5647438543343817 0.22099385433438168
vt 0.531249857476427 0.34599378818919135
vt 0.41530555462146 0.3770610641391797
vt 0.4153055752715636 0.2479389413940155
vt 0.531250142523573 0.2790062881891914
vt 0.5647436456656183 0.4040063543343817
vt 0.4798666187606398 0.48888338123936026
vt 0.4153055752715636 0.3770610586059845
vt 0.531250142523573 0.3459937118108086
vt 0.6227562118108086 0.43750014252357305
vt 0.5916889358608203 0.55344444537854
vt 0.4798666338775481 0.48888336612245187
vt 0.5647438543343817 0.4040061456656183
vt 0.023016687233462445 0.3582899305555556
vt 0.014087704074158467 0.3582899305555556
vt 0.014087704074158467 0.3559027777777778
vt 0.023016687233462445 0.3559027777777778
vt 0.023352512777524558 0.3582899305555556
vt 0.014087704074158467 0.3582899305555556
vt 0.014087704074158467 0.3559027777777778
vt 0.023352512777524558 0.3559027777777778
vt 0.018694608159303974 0.36306423611111116
vt 0.009765625 0.36306423611111116
vt 0.009765625 0.36067708333333337
vt 0.018694608159303974 0.36067708333333337
vt 0.01903043370336609 0.36067708333333337
vt 0.009765625 0.36067708333333337
vt 0.009765625 0.3582899305555556
vt 0.01903043370336609 0.3582899305555556
vt 0.018694608159303974 0.36783854166666663
vt 0.009765625 0.36783854166666663
vt 0.009765625 0.36545138888888884
vt 0.018694608159303974 0.36545138888888884
vt 0.01903043370336609 0.36545138888888884
vt 0.009765625 0.36545138888888884
vt 0.009765625 0.36306423611111116
vt 0.01903043370336609 0.36306423611111116
vt 0.018694608159303974 0.3702256944444444
vt 0.009765625 0.3702256944444444
vt 0.009765625 0.36783854166666663
vt 0.018694608159303974 0.36783854166666663
vt 0.01903043370336609 0.3702256944444444
vt 0.009765625 0.3702256944444444
vt 0.009765625 0.36783854166666663
vt 0.01903043370336609 0.36783854166666663
vt 0.023016687233462445 0.375
vt 0.014087704074158467 0.375
vt 0.014087704074158467 0.3726128472222222
vt 0.023016687233462445 0.3726128472222222
vt 0.023352512777524558 0.375
vt 0.014087704074158467 0.375
vt 0.014087704074158467 0.3726128472222222
vt 0.023352512777524558 0.3726128472222222
vt 0.9191751890687025 0.5989888734312979
vt 0.9390625000000005 0.5791015625
vt 0.9317831924175398 0.60626822636438
vt 0.9118958980857899 0.5863808534829128
vt 0.9390625000000005 0.5791015625
vt 0.9191751437180811 0.5989889187819194
vt 0.9118958980857899 0.5718222715170872
vt 0.9390625000000005 0.5791015625
vt 0.9118958361356204 0.5863808700824606
vt 0.9191751890687025 0.5592142515687021
vt 0.9390625000000005 0.5791015625
vt 0.9118958361356204 0.5718222549175394
vt 0.9317832090170877 0.5519349605857894
vt 0.9390625000000005 0.5791015625
vt 0.9191751437180811 0.5592142062180806
vt 0.5828418065220358 0.6318359375
vt 0.580078125 0.6318359375
vt 0.580078125 0.62890625
vt 0.5828418065220358 0.62890625
vt 0.5828418065220358 0.6318359375
vt 0.580078125 0.6318359375
vt 0.580078125 0.62890625
vt 0.5828418065220358 0.62890625
vt 0.5828418065220358 0.634765625
vt 0.580078125 0.634765625
vt 0.580078125 0.6318359375
vt 0.5828418065220358 0.6318359375
vt 0.5828418065220358 0.634765625
vt 0.580078125 0.634765625
vt 0.580078125 0.6318359375
vt 0.5828418065220358 0.6318359375
vt 0.5828418065220358 0.634765625
vt 0.580078125 0.634765625
vt 0.580078125 0.6318359375
vt 0.5828418065220358 0.6318359375
vn 0 -1 0
vn 4.143408735633879e-16 0 -1
vn 0 1 0
vn 0 -1 0
vn 0 0 1
vn 0 -1 0
vn 0.4999999999999999 0 0.8660254037844387
vn 0 -1 0
vn 0.8660254037844387 0 0.49999999999999994
vn 0 1 0
vn 0 -1 0
vn 1 0 0
vn 0 1 0
vn 0 -1 0
vn 0.8660254037844387 0 -0.49999999999999994
vn 0 1 0
vn 0 -1 0
vn 0.5000000000000001 0 -0.8660254037844386
vn 0 1 0
vn 0 1 0
vn 0 1 0
vn 0 1 0
vn 0 1 0
vn 0 1 0
vn 0 1 0
vn 0 1 0
vn 0 1 0
vn 0 1 0
vn 0 1 0
vn 0 1 0
vn 0 1 0
vn 0 1 0
vn 0 1 0
vn 0 1 0
vn 0 1 0
vn 0 0 -1
vn 0 0 1
vn -0.49999999999999994 0 -0.8660254037844387
vn 0.49999999999999994 0 0.8660254037844387
vn -0.8660254037844387 0 -0.49999999999999994
vn 0.8660254037844387 0 0.49999999999999994
vn -1 0 0
vn 1 0 0
vn -0.8660254037844388 0 0.5000000000000001
vn 0.8660254037844387 0 -0.5
vn -0.5 0 0.8660254037844388
vn 0.5000000000000001 0 -0.8660254037844386
vn 1.599274029431488e-7 0 0.9999999999999872
vn 4.143408735633879e-16 0 -1
vn 0 1 0
vn 0 1 0
vn 0 1 0
vn 0 1 0
vn 0 1 0
vn 0 1 0
vn 0 1 0
vn -0.000004255241727850107 0 -0.9999999999909465
vn 0 0 1
vn 0.5 0 0.8660254037844387
vn 0.8660254037844387 0 0.5000000000000001
vn 1 0 0
vn 0.8660254037844386 0 -0.5000000000000001
vn 0.49999999999999994 0 -0.8660254037844388
vn 0 -1 0
vn -0.49999999999999994 0 0.8660254037844387
vn 0 -1 0
vn -0.8660254037844389 0 0.4999999999999996
vn 0 1 0
vn 0 -1 0
vn -1 0 -2.0717043678169412e-16
vn 0 1 0
vn 0 -1 0
vn -0.8660254037844388 0 -0.4999999999999997
vn 0 1 0
vn 0 -1 0
vn -0.4999999999999995 0 -0.8660254037844389
vn 0 1 0
vn 0 1 0
vn 0 1 0
vn 0 1 0
vn 0 1 0
vn 0 1 0
vn 0 1 0
vn 0 1 0
vn 0 1 0
vn 0 1 0
vn 0 1 0
vn 0 1 0
vn 0.49999999999999994 0 -0.8660254037844387
vn -0.5 0 0.8660254037844388
vn 0.8660254037844388 0 -0.4999999999999996
vn -0.8660254037844388 0 0.4999999999999996
vn 1 0 2.149566432795487e-16
vn -1 0 -2.0717043678169412e-16
vn 0.8660254037844388 0 0.4999999999999997
vn -0.8660254037844389 0 -0.49999999999999983
vn 0.49999986149879916 0 0.8660254837481295
vn -0.49999999999999967 0 -0.866025403784439
vn 0 1 0
vn 0 1 0
vn 0 1 0
vn 0 1 0
vn 0 1 0
vn -0.5000000000000001 0 0.8660254037844387
vn -0.8660254037844389 0 0.4999999999999997
vn -1 0 -2.383095760947121e-16
vn -0.8660254037844387 0 -0.49999999999999983
vn -0.49999631484803675 0 -0.8660275313974626
usemtl m_7eb7ee8c-57ab-4dd1-ab11-fdeef8999259
f 61/1/1 12/2/1 1/3/1
f 12/4/2 61/5/2 62/6/2 13/7/2
f 86/8/3 75/9/3 26/10/3 37/11/3
f 2/12/4 51/13/4 1/14/4
f 51/15/5 2/16/5 3/17/5 52/18/5
f 4/19/6 2/20/6 1/21/6
f 2/22/7 4/23/7 5/24/7 3/25/7
f 6/26/8 4/27/8 1/28/8
f 4/29/9 6/30/9 7/31/9 5/32/9
f 34/33/10 29/34/10 28/35/10 33/36/10
f 8/37/11 6/38/11 1/39/11
f 6/40/12 8/41/12 9/42/12 7/43/12
f 35/44/13 30/45/13 29/46/13 34/47/13
f 10/48/14 8/49/14 1/50/14
f 8/51/15 10/52/15 11/53/15 9/54/15
f 36/55/16 31/56/16 30/57/16 35/58/16
f 12/59/17 10/60/17 1/61/17
f 10/62/18 12/63/18 13/64/18 11/65/18
f 37/66/19 26/67/19 31/68/19 36/69/19
f 33/70/20 28/71/20 27/72/20 32/73/20
f 32/74/21 27/75/21 76/76/21 81/77/21
f 87/78/22 38/79/22 14/80/22 63/81/22
f 38/82/23 39/83/23 15/84/23 14/85/23
f 39/86/24 40/87/24 16/88/24 15/89/24
f 40/90/25 41/91/25 17/92/25 16/93/25
f 41/94/26 42/95/26 18/96/26 17/97/26
f 42/98/27 43/99/27 19/100/27 18/101/27
f 43/102/28 92/103/28 68/104/28 19/105/28
f 14/106/29 20/107/29 69/108/29 63/109/29
f 68/110/30 70/111/30 21/112/30 19/113/30
f 19/114/31 21/115/31 22/116/31 18/117/31
f 18/118/32 22/119/32 23/120/32 17/121/32
f 17/122/33 23/123/33 24/124/33 16/125/33
f 16/126/34 24/127/34 25/128/34 15/129/34
f 15/130/35 25/131/35 20/132/35 14/133/35
f 76/134/36 27/135/36 21/136/36 70/137/36
f 32/138/37 81/139/37 52/140/37 3/141/37
f 27/142/38 28/143/38 22/144/38 21/145/38
f 33/146/39 32/147/39 3/148/39 5/149/39
f 28/150/40 29/151/40 23/152/40 22/153/40
f 34/154/41 33/155/41 5/156/41 7/157/41
f 29/158/42 30/159/42 24/160/42 23/161/42
f 35/162/43 34/163/43 7/164/43 9/165/43
f 30/166/44 31/167/44 25/168/44 24/169/44
f 36/170/45 35/171/45 9/172/45 11/173/45
f 31/174/46 26/175/46 20/176/46 25/177/46
f 37/178/47 36/179/47 11/180/47 13/181/47
f 26/182/48 75/183/48 69/184/48 20/185/48
f 86/186/49 37/187/49 13/188/49 62/189/49
f 93/190/50 44/191/50 45/192/50
f 45/193/51 44/194/51 50/195/51
f 50/196/52 44/197/52 49/198/52
f 49/199/53 44/200/53 48/201/53
f 48/202/54 44/203/54 47/204/54
f 47/205/55 44/206/55 46/207/55
f 46/208/56 44/209/56 94/210/56
f 93/211/57 45/212/57 38/213/57 87/214/57
f 46/215/58 94/216/58 92/217/58 43/218/58
f 47/219/59 46/220/59 43/221/59 42/222/59
f 48/223/60 47/224/60 42/225/60 41/226/60
f 49/227/61 48/228/61 41/229/61 40/230/61
f 50/231/62 49/232/62 40/233/62 39/234/62
f 45/235/63 50/236/63 39/237/63 38/238/63
f 51/239/64 53/240/64 1/241/64
f 53/242/65 51/243/65 52/244/65 54/245/65
f 53/246/66 55/247/66 1/248/66
f 55/249/67 53/250/67 54/251/67 56/252/67
f 82/253/68 77/254/68 78/255/68 83/256/68
f 55/257/69 57/258/69 1/259/69
f 57/260/70 55/261/70 56/262/70 58/263/70
f 83/264/71 78/265/71 79/266/71 84/267/71
f 57/268/72 59/269/72 1/270/72
f 59/271/73 57/272/73 58/273/73 60/274/73
f 84/275/74 79/276/74 80/277/74 85/278/74
f 59/279/75 61/280/75 1/281/75
f 61/282/76 59/283/76 60/284/76 62/285/76
f 85/286/77 80/287/77 75/288/77 86/289/77
f 81/290/78 76/291/78 77/292/78 82/293/78
f 88/294/79 87/295/79 63/296/79 64/297/79
f 89/298/80 88/299/80 64/300/80 65/301/80
f 90/302/81 89/303/81 65/304/81 66/305/81
f 91/306/82 90/307/82 66/308/82 67/309/82
f 92/310/83 91/311/83 67/312/83 68/313/83
f 67/314/84 71/315/84 70/316/84 68/317/84
f 66/318/85 72/319/85 71/320/85 67/321/85
f 65/322/86 73/323/86 72/324/86 66/325/86
f 64/326/87 74/327/87 73/328/87 65/329/87
f 63/330/88 69/331/88 74/332/88 64/333/88
f 77/334/89 76/335/89 70/336/89 71/337/89
f 81/338/90 82/339/90 54/340/90 52/341/90
f 78/342/91 77/343/91 71/344/91 72/345/91
f 82/346/92 83/347/92 56/348/92 54/349/92
f 79/350/93 78/351/93 72/352/93 73/353/93
f 83/354/94 84/355/94 58/356/94 56/357/94
f 80/358/95 79/359/95 73/360/95 74/361/95
f 84/362/96 85/363/96 60/364/96 58/365/96
f 75/366/97 80/367/97 74/368/97 69/369/97
f 85/370/98 86/371/98 62/372/98 60/373/98
f 98/374/99 44/375/99 93/376/99
f 97/377/100 44/378/100 98/379/100
f 96/380/101 44/381/101 97/382/101
f 95/383/102 44/384/102 96/385/102
f 94/386/103 44/387/103 95/388/103
f 94/389/104 95/390/104 91/391/104 92/392/104
f 95/393/105 96/394/105 90/395/105 91/396/105
f 96/397/106 97/398/106 89/399/106 90/400/106
f 97/401/107 98/402/107 88/403/107 89/404/107
f 98/405/108 93/406/108 87/407/108 88/408/108
o mid_eyelashes
v 0.22031249999999994 0.6463541666666667 -0.3171875
v 0.22031249999999994 0.6463541666666667 -0.3328125
v 0.22031249999999994 0.5838541666666666 -0.3171875
v 0.22031249999999994 0.5838541666666666 -0.3328125
v 0.20468749999999994 0.6463541666666667 -0.3171875
v 0.20468749999999994 0.6463541666666667 -0.3328125
v 0.20468749999999994 0.5838541666666666 -0.3171875
v 0.20468749999999994 0.5838541666666666 -0.3328125
vt 0.015625 1
vt 0 1
vt 0 0.8125
vt 0.015625 0.8125
vt 0.015625 0.8125
vt 0.015625 1
vt 0 1
vt 0 0.8125
vt 0 0.984375
vt 0.015625 0.984375
vt 0.015625 1
vt 0 1
vt 0.015625 0.984375
vt 0.015625 1
vt 0 1
vt 0 0.984375
vt 0.015625 0.8125
vt 0.015625 1
vt 0 1
vt 0 0.8125
vt 0.015625 1
vt 0 1
vt 0 0.8125
vt 0.015625 0.8125
vn 1 0 0
vn -1 0 0
vn 0 1 0
vn 0 -1 0
vn 0 0 1
vn 0 0 -1
usemtl m_0c03e05d-bbee-7892-1d84-ab9d7a9a7988
f 100/409/109 99/410/109 101/411/109 102/412/109
f 105/413/110 103/414/110 104/415/110 106/416/110
f 103/417/111 99/418/111 100/419/111 104/420/111
f 102/421/112 101/422/112 105/423/112 106/424/112
f 101/425/113 99/426/113 103/427/113 105/428/113
f 104/429/114 100/430/114 102/431/114 106/432/114
o right_eyelashes
v 0.16805276252155096 0.6265500700468032 -0.3171875
v 0.16805276252155096 0.6265500700468032 -0.3328125
v 0.19197047704436906 0.5688075992648478 -0.3171875
v 0.19197047704436906 0.5688075992648478 -0.3328125
v 0.1536171448260621 0.6205706414160986 -0.3171875
v 0.1536171448260621 0.6205706414160986 -0.3328125
v 0.17753485934888022 0.5628281706341433 -0.3171875
v 0.17753485934888022 0.5628281706341433 -0.3328125
vt 0.015625 1
vt 0 1
vt 0 0.8125
vt 0.015625 0.8125
vt 0.015625 0.8125
vt 0.015625 1
vt 0 1
vt 0 0.8125
vt 0 0.984375
vt 0.015625 0.984375
vt 0.015625 1
vt 0 1
vt 0.015625 0.984375
vt 0.015625 1
vt 0 1
vt 0 0.984375
vt 0.015625 0.8125
vt 0.015625 1
vt 0 1
vt 0 0.8125
vt 0.015625 1
vt 0 1
vt 0 0.8125
vt 0.015625 0.8125
vn 0.9238795325112867 0.3826834323650897 0
vn -0.9238795325112867 -0.3826834323650897 0
vn -0.3826834323650897 0.9238795325112867 0
vn 0.3826834323650897 -0.9238795325112867 0
vn 0 0 1
vn 0 0 -1
usemtl m_0c03e05d-bbee-7892-1d84-ab9d7a9a7988
f 108/433/115 107/434/115 109/435/115 110/436/115
f 113/437/116 111/438/116 112/439/116 114/440/116
f 111/441/117 107/442/117 108/443/117 112/444/117
f 110/445/118 109/446/118 113/447/118 114/448/118
f 109/449/119 107/450/119 111/451/119 113/452/119
f 112/453/120 108/454/120 110/455/120 114/456/120
o left_eyelashes
v 0.268700913187349 0.6229689162900103 -0.3171875
v 0.268700913187349 0.6229689162900103 -0.3328125
v 0.24478319866453088 0.5652264455080548 -0.3171875
v 0.24478319866453088 0.5652264455080548 -0.3328125
v 0.2542652954918601 0.6289483449207148 -0.3171875
v 0.2542652954918601 0.6289483449207148 -0.3328125
v 0.230347580969042 0.5712058741387593 -0.3171875
v 0.230347580969042 0.5712058741387593 -0.3328125
vt 0.015625 1
vt 0 1
vt 0 0.8125
vt 0.015625 0.8125
vt 0.015625 0.8125
vt 0.015625 1
vt 0 1
vt 0 0.8125
vt 0 0.984375
vt 0.015625 0.984375
vt 0.015625 1
vt 0 1
vt 0.015625 0.984375
vt 0.015625 1
vt 0 1
vt 0 0.984375
vt 0.015625 0.8125
vt 0.015625 1
vt 0 1
vt 0 0.8125
vt 0.015625 1
vt 0 1
vt 0 0.8125
vt 0.015625 0.8125
vn 0.9238795325112867 -0.3826834323650897 0
vn -0.9238795325112867 0.3826834323650897 0
vn 0.3826834323650897 0.9238795325112867 0
vn -0.3826834323650897 -0.9238795325112867 0
vn 0 0 1
vn 0 0 -1
usemtl m_0c03e05d-bbee-7892-1d84-ab9d7a9a7988
f 116/457/121 115/458/121 117/459/121 118/460/121
f 121/461/122 119/462/122 120/463/122 122/464/122
f 119/465/123 115/466/123 116/467/123 120/468/123
f 118/469/124 117/470/124 121/471/124 122/472/124
f 117/473/125 115/474/125 119/475/125 121/476/125
f 120/477/126 116/478/126 118/479/126 122/480/126
o cylinder
v 0.21250000000000002 0.1875 -0.32499999999999996
v 0.21250000000000002 0.4375 -0.32499999999999996
v 0.21501202367904182 0.1875 -0.31562499999999993
v 0.21501202367904182 0.4375 -0.31562499999999993
v 0.21936297632095825 0.1875 -0.31813702367904173
v 0.21936297632095825 0.4375 -0.31813702367904173
v 0.22187500000000004 0.1875 -0.32248797632095816
v 0.22187500000000004 0.4375 -0.32248797632095816
v 0.22187500000000004 0.1875 -0.32751202367904175
v 0.22187500000000004 0.4375 -0.32751202367904175
v 0.21936297632095825 0.1875 -0.3318629763209582
v 0.21936297632095825 0.4375 -0.3318629763209582
v 0.21501202367904182 0.1875 -0.334375
v 0.21501202367904182 0.4375 -0.334375
v 0.20998797632095825 0.1875 -0.334375
v 0.20998797632095825 0.4375 -0.334375
v 0.2056370236790418 0.1875 -0.3318629763209582
v 0.2056370236790418 0.4375 -0.3318629763209582
v 0.20312500000000003 0.1875 -0.32751202367904175
v 0.20312500000000003 0.4375 -0.32751202367904175
v 0.20312500000000003 0.1875 -0.32248797632095816
v 0.20312500000000003 0.4375 -0.32248797632095816
v 0.2056370236790418 0.1875 -0.31813702367904173
v 0.2056370236790418 0.4375 -0.31813702367904173
v 0.20998797632095825 0.1875 -0.31562499999999993
v 0.20998797632095825 0.4375 -0.31562499999999993
vt 0.6698612905717853 0.28420997971410733
vt 0.6685619818613551 0.2890625
vt 0.66015625 0.28420997971410733
vt 0.66015625 0.0390625
vt 0.6651812500000001 0.0390625
vt 0.6651812500000001 0.2890625
vt 0.66015625 0.2890625
vt 0.66015625 0.2793566625168149
vt 0.6650083718629086 0.280657458303049
vt 0.66015625 0.2890625
vt 0.6698620874831851 0.2842103781370914
vt 0.668561291696951 0.2890625
vt 0.66015625 0.2842103781370914
vt 0.66015625 0.0390625
vt 0.6651812500000001 0.0390625
vt 0.6651812500000001 0.2890625
vt 0.66015625 0.2890625
vt 0.66015625 0.27935745942821466
vt 0.6650087702858927 0.28065676813864493
vt 0.66015625 0.2890625
vt 0.66953125 0.28403749999999994
vt 0.66953125 0.2890625
vt 0.66015625 0.28654999999999997
vt 0.66015625 0.0390625
vt 0.6651812500000001 0.0390625
vt 0.6651812500000001 0.2890625
vt 0.66015625 0.2890625
vt 0.66953125 0.28403749999999994
vt 0.66953125 0.2890625
vt 0.66015625 0.28654999999999997
vt 0.66015625 0.27935745942821466
vt 0.6650087702858927 0.28065676813864493
vt 0.66015625 0.2890625
vt 0.66015625 0.0390625
vt 0.6651812500000001 0.0390625
vt 0.6651812500000001 0.2890625
vt 0.66015625 0.2890625
vt 0.6698620874831851 0.2842103781370914
vt 0.668561291696951 0.2890625
vt 0.66015625 0.2842103781370914
vt 0.66015625 0.2793566625168149
vt 0.6650083718629086 0.280657458303049
vt 0.66015625 0.2890625
vt 0.66015625 0.0390625
vt 0.6651812500000001 0.0390625
vt 0.6651812500000001 0.2890625
vt 0.66015625 0.2890625
vt 0.6698612905717853 0.28420997971410733
vt 0.6685619818613551 0.2890625
vt 0.66015625 0.28420997971410733
vt 0.66015625 0.2796875
vt 0.6651812500000001 0.2796875
vt 0.66266875 0.2890625
vt 0.66015625 0.0390625
vt 0.6651812500000001 0.0390625
vt 0.6651812500000001 0.2890625
vt 0.66015625 0.2890625
vt 0.6651812500000001 0.2890625
vt 0.66015625 0.2890625
vt 0.66266875 0.2796875
vt 0.66015625 0.2890625
vt 0.6614555587104303 0.28420997971410733
vt 0.6698612905717853 0.2890625
vt 0.66015625 0.0390625
vt 0.6651812500000001 0.0390625
vt 0.6651812500000001 0.2890625
vt 0.66015625 0.2890625
vt 0.6650083718629086 0.2890625
vt 0.66015625 0.2877617042137659
vt 0.6650083718629086 0.2793566625168149
vt 0.66015625 0.2890625
vt 0.6614570457862341 0.2842103781370914
vt 0.6698620874831851 0.2890625
vt 0.66015625 0.0390625
vt 0.6651812500000001 0.0390625
vt 0.6651812500000001 0.2890625
vt 0.66015625 0.2890625
vt 0.6650087702858927 0.2890625
vt 0.66015625 0.28776319128956973
vt 0.6650087702858927 0.27935745942821466
vt 0.66015625 0.2890625
vt 0.66015625 0.28403749999999994
vt 0.66953125 0.28654999999999997
vt 0.66015625 0.0390625
vt 0.6651812500000001 0.0390625
vt 0.6651812500000001 0.2890625
vt 0.66015625 0.2890625
vt 0.66015625 0.2890625
vt 0.66015625 0.28403749999999994
vt 0.66953125 0.28654999999999997
vt 0.6650087702858927 0.2890625
vt 0.66015625 0.28776319128956973
vt 0.6650087702858927 0.27935745942821466
vt 0.66015625 0.0390625
vt 0.6651812500000001 0.0390625
vt 0.6651812500000001 0.2890625
vt 0.66015625 0.2890625
vt 0.66015625 0.2890625
vt 0.6614570457862341 0.2842103781370914
vt 0.6698620874831851 0.2890625
vt 0.6650083718629086 0.2890625
vt 0.66015625 0.2877617042137659
vt 0.6650083718629086 0.2793566625168149
vt 0.66015625 0.0390625
vt 0.6651812500000001 0.0390625
vt 0.6651812500000001 0.2890625
vt 0.66015625 0.2890625
vt 0.66015625 0.2890625
vt 0.6614555587104303 0.28420997971410733
vt 0.6698612905717853 0.2890625
vt 0.6651812500000001 0.2890625
vt 0.66015625 0.2890625
vt 0.66266875 0.2796875
vt 0.66015625 0.0390625
vt 0.6651812500000001 0.0390625
vt 0.6651812500000001 0.2890625
vt 0.66015625 0.2890625
vt 0.66015625 0.2796875
vt 0.6651812500000001 0.2796875
vt 0.66266875 0.2890625
vn 0 -1 0
vn 0.5000000000000051 0 0.8660254037844357
vn 0 1 0
vn 0 -1 0
vn 0.8660254037844357 0 0.5000000000000051
vn 0 1 0
vn 0 -1 0
vn 1 0 0
vn 0 1 0
vn 0 -1 0
vn 0.8660254037844357 0 -0.5000000000000051
vn 0 1 0
vn 0 -1 0
vn 0.5000000000000051 0 -0.8660254037844357
vn 0 1 0
vn 0 -1 0
vn 0 0 -1
vn 0 1 0
vn 0 -1 0
vn -0.5000000000000028 0 -0.8660254037844373
vn 0 1 0
vn 0 -1 0
vn -0.8660254037844382 0 -0.500000000000001
vn 0 1 0
vn 0 -1 0
vn -1 0 0
vn 0 1 0
vn 0 -1 0
vn -0.8660254037844382 0 0.500000000000001
vn 0 1 0
vn 0 -1 0
vn -0.5000000000000028 0 0.8660254037844373
vn 0 1 0
vn 0 -1 0
vn 0 0 1
vn 0 1 0
usemtl m_0c03e05d-bbee-7892-1d84-ab9d7a9a7988
f 127/481/127 125/482/127 123/483/127
f 125/484/128 127/485/128 128/486/128 126/487/128
f 126/488/129 128/489/129 124/490/129
f 129/491/130 127/492/130 123/493/130
f 127/494/131 129/495/131 130/496/131 128/497/131
f 128/498/132 130/499/132 124/500/132
f 131/501/133 129/502/133 123/503/133
f 129/504/134 131/505/134 132/506/134 130/507/134
f 130/508/135 132/509/135 124/510/135
f 133/511/136 131/512/136 123/513/136
f 131/514/137 133/515/137 134/516/137 132/517/137
f 132/518/138 134/519/138 124/520/138
f 135/521/139 133/522/139 123/523/139
f 133/524/140 135/525/140 136/526/140 134/527/140
f 134/528/141 136/529/141 124/530/141
f 137/531/142 135/532/142 123/533/142
f 135/534/143 137/535/143 138/536/143 136/537/143
f 136/538/144 138/539/144 124/540/144
f 139/541/145 137/542/145 123/543/145
f 137/544/146 139/545/146 140/546/146 138/547/146
f 138/548/147 140/549/147 124/550/147
f 141/551/148 139/552/148 123/553/148
f 139/554/149 141/555/149 142/556/149 140/557/149
f 140/558/150 142/559/150 124/560/150
f 143/561/151 141/562/151 123/563/151
f 141/564/152 143/565/152 144/566/152 142/567/152
f 142/568/153 144/569/153 124/570/153
f 145/571/154 143/572/154 123/573/154
f 143/574/155 145/575/155 146/576/155 144/577/155
f 144/578/156 146/579/156 124/580/156
f 147/581/157 145/582/157 123/583/157
f 145/584/158 147/585/158 148/586/158 146/587/158
f 146/588/159 148/589/159 124/590/159
f 125/591/160 147/592/160 123/593/160
f 147/594/161 125/595/161 126/596/161 148/597/161
f 148/598/162 126/599/162 124/600/162
o cone
v 0.21250000000000002 0.1875 -0.32499999999999996
v 0.21250000000000002 0.21875 -0.32499999999999996
v 0.2269851716113257 0.1875 -0.27812499999999996
v 0.2504226716113257 0.1875 -0.2960296567773486
v 0.259375 0.1875 -0.32499999999999996
v 0.2504226716113257 0.1875 -0.3539703432226513
v 0.2269851716113257 0.1875 -0.37187499999999996
v 0.19801482838867435 0.1875 -0.37187499999999996
v 0.1745773283886744 0.1875 -0.3539703432226513
v 0.16562500000000002 0.1875 -0.32499999999999996
v 0.17457732838867435 0.1875 -0.2960296567773486
v 0.19801482838867435 0.1875 -0.27812499999999996
vt 0.9823077503786746 0.8411498856691748
vt 0.944654259472929 0.95703125
vt 0.78515625 0.8411498856691748
vt 0.78515625 0.53776875
vt 0.90700625 0.53776875
vt 0.84608125 0.95703125
vt 0.9823062499999999 0.8411500000000001
vt 0.94465625 0.95703125
vt 0.78515625 0.8411500000000001
vt 0.78515625 0.53776875
vt 0.90700625 0.53776875
vt 0.84608125 0.95703125
vt 0.94465625 0.8411500000000001
vt 0.9823062499999999 0.95703125
vt 0.78515625 0.95703125
vt 0.78515625 0.53776875
vt 0.90700625 0.53776875
vt 0.84608125 0.95703125
vt 0.78515625 0.759881292797367
vt 0.9010385213832417 0.797531992068738
vt 0.7851562500000001 0.95703125
vt 0.78515625 0.53776875
vt 0.90700625 0.53776875
vt 0.84608125 0.95703125
vt 0.78515625 0.76953125
vt 0.90700625 0.76953125
vt 0.84608125 0.95703125
vt 0.78515625 0.53776875
vt 0.90700625 0.53776875
vt 0.84608125 0.95703125
vt 0.78515625 0.95703125
vt 0.8228097409057455 0.8411498856691748
vt 0.9823077503786746 0.95703125
vt 0.78515625 0.53776875
vt 0.90700625 0.53776875
vt 0.84608125 0.95703125
vt 0.78515625 0.95703125
vt 0.82280625 0.8411500000000001
vt 0.9823062499999999 0.95703125
vt 0.78515625 0.53776875
vt 0.90700625 0.53776875
vt 0.84608125 0.95703125
vt 0.82280625 0.95703125
vt 0.78515625 0.8411500000000001
vt 0.9823062499999999 0.8411500000000001
vt 0.78515625 0.53776875
vt 0.90700625 0.53776875
vt 0.84608125 0.95703125
vt 0.9010385213832417 0.95703125
vt 0.78515625 0.919380550728629
vt 0.9010385213832417 0.759881292797367
vt 0.78515625 0.53776875
vt 0.90700625 0.53776875
vt 0.84608125 0.95703125
vt 0.981225 0.9296875
vt 0.859375 0.9296875
vt 0.9203 0.7421875
vt 0.78515625 0.53776875
vt 0.90700625 0.53776875
vt 0.84608125 0.95703125
vn 0 -1 0
vn 0.34091587562460707 0.8274202110975705 0.44626467484482735
vn 0 -1 0
vn 0.5467263862403948 0.8200895793605922 0.16894774462148296
vn 0 -1 0
vn 0.5467263862403948 0.8200895793605922 -0.16894774462148296
vn 0 -1 0
vn 0.3409158756246071 0.8274202110975705 -0.44626467484482746
vn 0 -1 0
vn 0 0.8320502943378437 -0.5547001962252291
vn 0 -1 0
vn -0.34091587562460773 0.8274202110975704 -0.4462646748448271
vn 0 -1 0
vn -0.5467263862403946 0.820089579360592 -0.16894774462148396
vn 0 -1 0
vn -0.5467263862403948 0.8200895793605922 0.16894774462148296
vn 0 -1 0
vn -0.3409158756246071 0.8274202110975705 0.44626467484482746
vn 0 -1 0
vn 0 0.8320502943378437 0.5547001962252291
usemtl m_0c03e05d-bbee-7892-1d84-ab9d7a9a7988
f 152/601/163 151/602/163 149/603/163
f 151/604/164 152/605/164 150/606/164
f 153/607/165 152/608/165 149/609/165
f 152/610/166 153/611/166 150/612/166
f 154/613/167 153/614/167 149/615/167
f 153/616/168 154/617/168 150/618/168
f 155/619/169 154/620/169 149/621/169
f 154/622/170 155/623/170 150/624/170
f 156/625/171 155/626/171 149/627/171
f 155/628/172 156/629/172 150/630/172
f 157/631/173 156/632/173 149/633/173
f 156/634/174 157/635/174 150/636/174
f 158/637/175 157/638/175 149/639/175
f 157/640/176 158/641/176 150/642/176
f 159/643/177 158/644/177 149/645/177
f 158/646/178 159/647/178 150/648/178
f 160/649/179 159/650/179 149/651/179
f 159/652/180 160/653/180 150/654/180
f 151/655/181 160/656/181 149/657/181
f 160/658/182 151/659/182 150/660/182
o sphere
v 0.21250000000000002 0.40625 -0.32499999999999996
v 0.21250000000000002 0.59375 -0.32499999999999996
v 0.23995873926376118 0.5662912607362388 -0.25870873926376114
v 0.2513325214724777 0.5 -0.23125
v 0.2399587392637612 0.4337087392637612 -0.25870873926376114
v 0.27879126073623883 0.5662912607362388 -0.29754126073623877
v 0.30625 0.5 -0.2861674785275223
v 0.27879126073623883 0.4337087392637612 -0.29754126073623877
v 0.27879126073623883 0.5662912607362388 -0.35245873926376114
v 0.30625 0.5 -0.36383252147247763
v 0.27879126073623883 0.4337087392637612 -0.35245873926376114
v 0.2399587392637612 0.5662912607362388 -0.39129126073623877
v 0.2513325214724777 0.5 -0.41874999999999996
v 0.2399587392637612 0.4337087392637612 -0.39129126073623877
v 0.18504126073623886 0.5662912607362388 -0.39129126073623877
v 0.17366747852752237 0.5 -0.41874999999999996
v 0.18504126073623886 0.4337087392637612 -0.3912912607362388
v 0.1462087392637612 0.5662912607362388 -0.35245873926376114
v 0.11875000000000002 0.5 -0.3638325214724777
v 0.1462087392637612 0.4337087392637612 -0.35245873926376114
v 0.1462087392637612 0.5662912607362388 -0.29754126073623877
v 0.11875000000000002 0.5 -0.2861674785275223
v 0.14620873926376118 0.4337087392637612 -0.29754126073623877
v 0.1850412607362388 0.5662912607362388 -0.25870873926376114
v 0.1736674785275223 0.5 -0.23125
v 0.1850412607362388 0.4337087392637612 -0.25870873926376114
vt 0.033860400348755926 0.75
vt 0.0018628274389309585 0.7053733489478491
vt 0.076171875 0.6858778721742671
vt 0.6368375 1
vt 0.6254625 0.9375
vt 0.703125 0.9375
vt 0.69175 1
vt 0.1879625 0.5
vt 0.1993375 0.4375
vt 0.25425 0.4375
vt 0.265625 0.5
vt 0.0018628274389309307 0.9079079010521509
vt 0.03386040034875587 0.86328125
vt 0.076171875 0.9274033778257329
vt 0.0018628274389309585 0.7053733489478491
vt 0.007830977984868523 0.6507861358360678
vt 0.07617187499999999 0.6858778721742671
vt 0.44910625 0.625
vt 0.43773125 0.5625
vt 0.51539375 0.5625
vt 0.50401875 0.625
vt 0.43773125 1
vt 0.44910625 0.9375
vt 0.50401875 0.9375
vt 0.51539375 1
vt 0.007830977984868523 0.9624951141639322
vt 0.0018628274389309307 0.9079079010521509
vt 0.076171875 0.9274033778257329
vt 0.007830977984868523 0.6507861358360678
vt 0.048715625 0.6141278721742671
vt 0.076171875 0.6858778721742671
vt 0.636375 0.875
vt 0.625 0.8125
vt 0.7026625 0.8125
vt 0.6912875 0.875
vt 0.375 0.5
vt 0.386375 0.4375
vt 0.4412875 0.4375
vt 0.45266249999999997 0.5
vt 0.048715625 0.9991533778257329
vt 0.007830977984868523 0.9624951141639322
vt 0.076171875 0.9274033778257329
vt 0.048715625 0.6141278721742671
vt 0.103628125 0.6141278721742671
vt 0.076171875 0.6858778721742671
vt 0.26160625 1
vt 0.25023125 0.9375
vt 0.32789375 0.9375
vt 0.31651875 1
vt 0.25023125 0.75
vt 0.26160625 0.6875
vt 0.31651875 0.6875
vt 0.32789375 0.75
vt 0.103628125 0.9991533778257329
vt 0.048715625 0.9991533778257329
vt 0.076171875 0.9274033778257329
vt 0.103628125 0.6141278721742671
vt 0.14451277201513146 0.6507861358360678
vt 0.076171875 0.6858778721742671
vt 0.1993375 0.375
vt 0.1879625 0.3125
vt 0.265625 0.3125
vt 0.25425 0.375
vt 0.0004625000000000046 0.5
vt 0.0118375 0.4375
vt 0.06675 0.4375
vt 0.078125 0.5
vt 0.1445127720151315 0.9624951141639322
vt 0.103628125 0.9991533778257329
vt 0.076171875 0.9274033778257329
vt 0.14451277201513146 0.6507861358360678
vt 0.15048092256106904 0.7053733489478491
vt 0.07617187500000001 0.6858778721742671
vt 0.44910625 0.75
vt 0.43773125 0.6875
vt 0.51539375 0.6875
vt 0.50401875 0.75
vt 0.43773125 0.875
vt 0.44910625 0.8125
vt 0.50401875 0.8125
vt 0.51539375 0.875
vt 0.15048092256106907 0.9079079010521509
vt 0.1445127720151315 0.9624951141639322
vt 0.076171875 0.9274033778257329
vt 0.15048092256106904 0.7053733489478491
vt 0.11848334965124407 0.75
vt 0.076171875 0.6858778721742671
vt 0.573875 0.5
vt 0.5625 0.4375
vt 0.6401625 0.4375
vt 0.6287875 0.5
vt 0 0.375
vt 0.011374999999999996 0.3125
vt 0.0662875 0.3125
vt 0.0776625 0.375
vt 0.11848334965124413 0.86328125
vt 0.15048092256106907 0.9079079010521509
vt 0.076171875 0.9274033778257329
vt 0.37670086396052405 0.3178014183189103
vt 0.42798663603947595 0.29817612243538794
vt 0.42798663603947595 0.375
vt 0.26160625 0.625
vt 0.25023125 0.5625
vt 0.32789375 0.5625
vt 0.31651875 0.625
vt 0.25023125 0.875
vt 0.26160625 0.8125
vt 0.31651875 0.8125
vt 0.32789375 0.875
vt 0.677986636039476 0.7290735816810897
vt 0.626700863960524 0.7486988775646121
vt 0.626700863960524 0.671875
vn 0.2705980500730986 0.9238795325112867 0.27059805007309884
vn 0.653281482438188 0.38268343236508984 0.6532814824381886
vn 0.6532814824381884 -0.38268343236508956 0.6532814824381884
vn 0.2705980500730987 -0.9238795325112867 0.2705980500730987
vn 0.3826834323650901 0.9238795325112866 0
vn 0.9238795325112866 0.3826834323650901 0
vn 0.9238795325112866 -0.3826834323650901 0
vn 0.3826834323650901 -0.9238795325112866 0
vn 0.2705980500730987 0.9238795325112867 -0.2705980500730987
vn 0.6532814824381883 0.3826834323650901 -0.6532814824381883
vn 0.6532814824381882 -0.38268343236509006 -0.6532814824381882
vn 0.2705980500730987 -0.9238795325112867 -0.2705980500730987
vn 0 0.9238795325112866 -0.38268343236509006
vn 0 0.38268343236509017 -0.9238795325112866
vn 9.354868103763939e-16 -0.3826834323650903 -0.9238795325112866
vn 3.8682034312753696e-16 -0.9238795325112867 -0.38268343236509
vn -0.2705980500730986 0.9238795325112867 -0.27059805007309884
vn -0.6532814824381877 0.38268343236509017 -0.6532814824381887
vn -0.6532814824381886 -0.3826834323650896 -0.6532814824381882
vn -0.2705980500730988 -0.9238795325112868 -0.2705980500730986
vn -0.3826834323650901 0.9238795325112866 0
vn -0.9238795325112867 0.3826834323650903 0
vn -0.9238795325112867 -0.3826834323650903 -4.4022908723595e-16
vn -0.38268343236509006 -0.9238795325112866 -1.9341017156376838e-16
vn -0.27059805007309873 0.9238795325112867 0.27059805007309856
vn -0.6532814824381883 0.38268343236509006 0.6532814824381883
vn -0.6532814824381883 -0.3826834323650897 0.6532814824381883
vn -0.2705980500730986 -0.9238795325112867 0.2705980500730986
vn 0 0.9238795325112866 0.3826834323650901
vn 0 0.3826834323650895 0.9238795325112868
vn 0 -0.38268343236508945 0.9238795325112868
vn 0 -0.9238795325112867 0.3826834323650901
usemtl m_e7465e2a-3671-e6ed-7fd9-117fe63defb3
f 163/661/183 166/662/183 162/663/183
f 163/664/184 164/665/184 167/666/184 166/667/184
f 164/668/185 165/669/185 168/670/185 167/671/185
f 168/672/186 165/673/186 161/674/186
f 166/675/187 169/676/187 162/677/187
f 166/678/188 167/679/188 170/680/188 169/681/188
f 167/682/189 168/683/189 171/684/189 170/685/189
f 171/686/190 168/687/190 161/688/190
f 169/689/191 172/690/191 162/691/191
f 169/692/192 170/693/192 173/694/192 172/695/192
f 170/696/193 171/697/193 174/698/193 173/699/193
f 174/700/194 171/701/194 161/702/194
f 172/703/195 175/704/195 162/705/195
f 172/706/196 173/707/196 176/708/196 175/709/196
f 173/710/197 174/711/197 177/712/197 176/713/197
f 177/714/198 174/715/198 161/716/198
f 175/717/199 178/718/199 162/719/199
f 175/720/200 176/721/200 179/722/200 178/723/200
f 176/724/201 177/725/201 180/726/201 179/727/201
f 180/728/202 177/729/202 161/730/202
f 178/731/203 181/732/203 162/733/203
f 178/734/204 179/735/204 182/736/204 181/737/204
f 179/738/205 180/739/205 183/740/205 182/741/205
f 183/742/206 180/743/206 161/744/206
f 181/745/207 184/746/207 162/747/207
f 181/748/208 182/749/208 185/750/208 184/751/208
f 182/752/209 183/753/209 186/754/209 185/755/209
f 186/756/210 183/757/210 161/758/210
f 184/759/211 163/760/211 162/761/211
f 184/762/212 185/763/212 164/764/212 163/765/212
f 185/766/213 186/767/213 165/768/213 164/769/213
f 165/770/214 186/771/214 161/772/214
o mid_eyelashes
v -0.22031249999999994 0.6463541666666667 -0.3171875
v -0.22031249999999994 0.6463541666666667 -0.3328125
v -0.22031249999999994 0.5838541666666666 -0.3171875
v -0.22031249999999994 0.5838541666666666 -0.3328125
v -0.20468749999999994 0.6463541666666667 -0.3171875
v -0.20468749999999994 0.6463541666666667 -0.3328125
v -0.20468749999999994 0.5838541666666666 -0.3171875
v -0.20468749999999994 0.5838541666666666 -0.3328125
vt 0 0.8125
vt 0 1
vt 0.015625 1
vt 0.015625 0.8125
vt 0 1
vt 0.015625 1
vt 0.015625 0.8125
vt 0 0.8125
vt 0.015625 1
vt 0.015625 0.984375
vt 0 0.984375
vt 0 1
vt 0 1
vt 0.015625 1
vt 0.015625 0.984375
vt 0 0.984375
vt 0 1
vt 0.015625 1
vt 0.015625 0.8125
vt 0 0.8125
vt 0 0.8125
vt 0 1
vt 0.015625 1
vt 0.015625 0.8125
vn -1 0 0
vn 1 0 0
vn 0 1 0
vn 0 -1 0
vn 0 0 1
vn 0 0 -1
usemtl m_0c03e05d-bbee-7892-1d84-ab9d7a9a7988
f 189/773/215 187/774/215 188/775/215 190/776/215
f 192/777/216 191/778/216 193/779/216 194/780/216
f 188/781/217 187/782/217 191/783/217 192/784/217
f 193/785/218 189/786/218 190/787/218 194/788/218
f 191/789/219 187/790/219 189/791/219 193/792/219
f 190/793/220 188/794/220 192/795/220 194/796/220
o left_eyelashes
v -0.16805276252155096 0.6265500700468032 -0.3171875
v -0.16805276252155096 0.6265500700468032 -0.3328125
v -0.19197047704436906 0.5688075992648478 -0.3171875
v -0.19197047704436906 0.5688075992648478 -0.3328125
v -0.1536171448260621 0.6205706414160986 -0.3171875
v -0.1536171448260621 0.6205706414160986 -0.3328125
v -0.17753485934888022 0.5628281706341433 -0.3171875
v -0.17753485934888022 0.5628281706341433 -0.3328125
vt 0 0.8125
vt 0 1
vt 0.015625 1
vt 0.015625 0.8125
vt 0 1
vt 0.015625 1
vt 0.015625 0.8125
vt 0 0.8125
vt 0.015625 1
vt 0.015625 0.984375
vt 0 0.984375
vt 0 1
vt 0 1
vt 0.015625 1
vt 0.015625 0.984375
vt 0 0.984375
vt 0 1
vt 0.015625 1
vt 0.015625 0.8125
vt 0 0.8125
vt 0 0.8125
vt 0 1
vt 0.015625 1
vt 0.015625 0.8125
vn -0.9238795325112867 0.3826834323650897 0
vn 0.9238795325112867 -0.3826834323650897 0
vn 0.3826834323650897 0.9238795325112867 0
vn -0.3826834323650897 -0.9238795325112867 0
vn 0 0 1
vn 0 0 -1
usemtl m_0c03e05d-bbee-7892-1d84-ab9d7a9a7988
f 197/797/221 195/798/221 196/799/221 198/800/221
f 200/801/222 199/802/222 201/803/222 202/804/222
f 196/805/223 195/806/223 199/807/223 200/808/223
f 201/809/224 197/810/224 198/811/224 202/812/224
f 199/813/225 195/814/225 197/815/225 201/816/225
f 198/817/226 196/818/226 200/819/226 202/820/226
o right_eyelashes
v -0.268700913187349 0.6229689162900103 -0.3171875
v -0.268700913187349 0.6229689162900103 -0.3328125
v -0.24478319866453088 0.5652264455080548 -0.3171875
v -0.24478319866453088 0.5652264455080548 -0.3328125
v -0.2542652954918601 0.6289483449207148 -0.3171875
v -0.2542652954918601 0.6289483449207148 -0.3328125
v -0.230347580969042 0.5712058741387593 -0.3171875
v -0.230347580969042 0.5712058741387593 -0.3328125
vt 0 0.8125
vt 0 1
vt 0.015625 1
vt 0.015625 0.8125
vt 0 1
vt 0.015625 1
vt 0.015625 0.8125
vt 0 0.8125
vt 0.015625 1
vt 0.015625 0.984375
vt 0 0.984375
vt 0 1
vt 0 1
vt 0.015625 1
vt 0.015625 0.984375
vt 0 0.984375
vt 0 1
vt 0.015625 1
vt 0.015625 0.8125
vt 0 0.8125
vt 0 0.8125
vt 0 1
vt 0.015625 1
vt 0.015625 0.8125
vn -0.9238795325112867 -0.3826834323650897 0
vn 0.9238795325112867 0.3826834323650897 0
vn -0.3826834323650897 0.9238795325112867 0
vn 0.3826834323650897 -0.9238795325112867 0
vn 0 0 1
vn 0 0 -1
usemtl m_0c03e05d-bbee-7892-1d84-ab9d7a9a7988
f 205/821/227 203/822/227 204/823/227 206/824/227
f 208/825/228 207/826/228 209/827/228 210/828/228
f 204/829/229 203/830/229 207/831/229 208/832/229
f 209/833/230 205/834/230 206/835/230 210/836/230
f 207/837/231 203/838/231 205/839/231 209/840/231
f 206/841/232 204/842/232 208/843/232 210/844/232
o cylinder
v -0.21250000000000002 0.1875 -0.32499999999999996
v -0.21250000000000002 0.4375 -0.32499999999999996
v -0.21501202367904182 0.1875 -0.31562499999999993
v -0.21501202367904182 0.4375 -0.31562499999999993
v -0.21936297632095825 0.1875 -0.31813702367904173
v -0.21936297632095825 0.4375 -0.31813702367904173
v -0.22187500000000004 0.1875 -0.32248797632095816
v -0.22187500000000004 0.4375 -0.32248797632095816
v -0.22187500000000004 0.1875 -0.32751202367904175
v -0.22187500000000004 0.4375 -0.32751202367904175
v -0.21936297632095825 0.1875 -0.3318629763209582
v -0.21936297632095825 0.4375 -0.3318629763209582
v -0.21501202367904182 0.1875 -0.334375
v -0.21501202367904182 0.4375 -0.334375
v -0.20998797632095825 0.1875 -0.334375
v -0.20998797632095825 0.4375 -0.334375
v -0.2056370236790418 0.1875 -0.3318629763209582
v -0.2056370236790418 0.4375 -0.3318629763209582
v -0.20312500000000003 0.1875 -0.32751202367904175
v -0.20312500000000003 0.4375 -0.32751202367904175
v -0.20312500000000003 0.1875 -0.32248797632095816
v -0.20312500000000003 0.4375 -0.32248797632095816
v -0.2056370236790418 0.1875 -0.31813702367904173
v -0.2056370236790418 0.4375 -0.31813702367904173
v -0.20998797632095825 0.1875 -0.31562499999999993
v -0.20998797632095825 0.4375 -0.31562499999999993
vt 0.6685619818613551 0.2890625
vt 0.6698612905717853 0.28420997971410733
vt 0.66015625 0.28420997971410733
vt 0.6651812500000001 0.2890625
vt 0.6651812500000001 0.0390625
vt 0.66015625 0.0390625
vt 0.66015625 0.2890625
vt 0.6650083718629086 0.280657458303049
vt 0.66015625 0.2793566625168149
vt 0.66015625 0.2890625
vt 0.668561291696951 0.2890625
vt 0.6698620874831851 0.2842103781370914
vt 0.66015625 0.2842103781370914
vt 0.6651812500000001 0.2890625
vt 0.6651812500000001 0.0390625
vt 0.66015625 0.0390625
vt 0.66015625 0.2890625
vt 0.6650087702858927 0.28065676813864493
vt 0.66015625 0.27935745942821466
vt 0.66015625 0.2890625
vt 0.66953125 0.2890625
vt 0.66953125 0.28403749999999994
vt 0.66015625 0.28654999999999997
vt 0.6651812500000001 0.2890625
vt 0.6651812500000001 0.0390625
vt 0.66015625 0.0390625
vt 0.66015625 0.2890625
vt 0.66953125 0.2890625
vt 0.66953125 0.28403749999999994
vt 0.66015625 0.28654999999999997
vt 0.6650087702858927 0.28065676813864493
vt 0.66015625 0.27935745942821466
vt 0.66015625 0.2890625
vt 0.6651812500000001 0.2890625
vt 0.6651812500000001 0.0390625
vt 0.66015625 0.0390625
vt 0.66015625 0.2890625
vt 0.668561291696951 0.2890625
vt 0.6698620874831851 0.2842103781370914
vt 0.66015625 0.2842103781370914
vt 0.6650083718629086 0.280657458303049
vt 0.66015625 0.2793566625168149
vt 0.66015625 0.2890625
vt 0.6651812500000001 0.2890625
vt 0.6651812500000001 0.0390625
vt 0.66015625 0.0390625
vt 0.66015625 0.2890625
vt 0.6685619818613551 0.2890625
vt 0.6698612905717853 0.28420997971410733
vt 0.66015625 0.28420997971410733
vt 0.6651812500000001 0.2796875
vt 0.66015625 0.2796875
vt 0.66266875 0.2890625
vt 0.6651812500000001 0.2890625
vt 0.6651812500000001 0.0390625
vt 0.66015625 0.0390625
vt 0.66015625 0.2890625
vt 0.66015625 0.2890625
vt 0.6651812500000001 0.2890625
vt 0.66266875 0.2796875
vt 0.6614555587104303 0.28420997971410733
vt 0.66015625 0.2890625
vt 0.6698612905717853 0.2890625
vt 0.6651812500000001 0.2890625
vt 0.6651812500000001 0.0390625
vt 0.66015625 0.0390625
vt 0.66015625 0.2890625
vt 0.66015625 0.2877617042137659
vt 0.6650083718629086 0.2890625
vt 0.6650083718629086 0.2793566625168149
vt 0.6614570457862341 0.2842103781370914
vt 0.66015625 0.2890625
vt 0.6698620874831851 0.2890625
vt 0.6651812500000001 0.2890625
vt 0.6651812500000001 0.0390625
vt 0.66015625 0.0390625
vt 0.66015625 0.2890625
vt 0.66015625 0.28776319128956973
vt 0.6650087702858927 0.2890625
vt 0.6650087702858927 0.27935745942821466
vt 0.66015625 0.28403749999999994
vt 0.66015625 0.2890625
vt 0.66953125 0.28654999999999997
vt 0.6651812500000001 0.2890625
vt 0.6651812500000001 0.0390625
vt 0.66015625 0.0390625
vt 0.66015625 0.2890625
vt 0.66015625 0.28403749999999994
vt 0.66015625 0.2890625
vt 0.66953125 0.28654999999999997
vt 0.66015625 0.28776319128956973
vt 0.6650087702858927 0.2890625
vt 0.6650087702858927 0.27935745942821466
vt 0.6651812500000001 0.2890625
vt 0.6651812500000001 0.0390625
vt 0.66015625 0.0390625
vt 0.66015625 0.2890625
vt 0.6614570457862341 0.2842103781370914
vt 0.66015625 0.2890625
vt 0.6698620874831851 0.2890625
vt 0.66015625 0.2877617042137659
vt 0.6650083718629086 0.2890625
vt 0.6650083718629086 0.2793566625168149
vt 0.6651812500000001 0.2890625
vt 0.6651812500000001 0.0390625
vt 0.66015625 0.0390625
vt 0.66015625 0.2890625
vt 0.6614555587104303 0.28420997971410733
vt 0.66015625 0.2890625
vt 0.6698612905717853 0.2890625
vt 0.66015625 0.2890625
vt 0.6651812500000001 0.2890625
vt 0.66266875 0.2796875
vt 0.6651812500000001 0.2890625
vt 0.6651812500000001 0.0390625
vt 0.66015625 0.0390625
vt 0.66015625 0.2890625
vt 0.6651812500000001 0.2796875
vt 0.66015625 0.2796875
vt 0.66266875 0.2890625
vn 0 -1 0
vn -0.5000000000000051 0 0.8660254037844357
vn 0 1 0
vn 0 -1 0
vn -0.8660254037844357 0 0.5000000000000051
vn 0 1 0
vn 0 -1 0
vn -1 0 0
vn 0 1 0
vn 0 -1 0
vn -0.8660254037844357 0 -0.5000000000000051
vn 0 1 0
vn 0 -1 0
vn -0.5000000000000051 0 -0.8660254037844357
vn 0 1 0
vn 0 -1 0
vn 0 0 -1
vn 0 1 0
vn 0 -1 0
vn 0.5000000000000028 0 -0.8660254037844373
vn 0 1 0
vn 0 -1 0
vn 0.8660254037844382 0 -0.500000000000001
vn 0 1 0
vn 0 -1 0
vn 1 0 0
vn 0 1 0
vn 0 -1 0
vn 0.8660254037844382 0 0.500000000000001
vn 0 1 0
vn 0 -1 0
vn 0.5000000000000028 0 0.8660254037844373
vn 0 1 0
vn 0 -1 0
vn 0 0 1
vn 0 1 0
usemtl m_0c03e05d-bbee-7892-1d84-ab9d7a9a7988
f 213/845/233 215/846/233 211/847/233
f 216/848/234 215/849/234 213/850/234 214/851/234
f 216/852/235 214/853/235 212/854/235
f 215/855/236 217/856/236 211/857/236
f 218/858/237 217/859/237 215/860/237 216/861/237
f 218/862/238 216/863/238 212/864/238
f 217/865/239 219/866/239 211/867/239
f 220/868/240 219/869/240 217/870/240 218/871/240
f 220/872/241 218/873/241 212/874/241
f 219/875/242 221/876/242 211/877/242
f 222/878/243 221/879/243 219/880/243 220/881/243
f 222/882/244 220/883/244 212/884/244
f 221/885/245 223/886/245 211/887/245
f 224/888/246 223/889/246 221/890/246 222/891/246
f 224/892/247 222/893/247 212/894/247
f 223/895/248 225/896/248 211/897/248
f 226/898/249 225/899/249 223/900/249 224/901/249
f 226/902/250 224/903/250 212/904/250
f 225/905/251 227/906/251 211/907/251
f 228/908/252 227/909/252 225/910/252 226/911/252
f 228/912/253 226/913/253 212/914/253
f 227/915/254 229/916/254 211/917/254
f 230/918/255 229/919/255 227/920/255 228/921/255
f 230/922/256 228/923/256 212/924/256
f 229/925/257 231/926/257 211/927/257
f 232/928/258 231/929/258 229/930/258 230/931/258
f 232/932/259 230/933/259 212/934/259
f 231/935/260 233/936/260 211/937/260
f 234/938/261 233/939/261 231/940/261 232/941/261
f 234/942/262 232/943/262 212/944/262
f 233/945/263 235/946/263 211/947/263
f 236/948/264 235/949/264 233/950/264 234/951/264
f 236/952/265 234/953/265 212/954/265
f 235/955/266 213/956/266 211/957/266
f 214/958/267 213/959/267 235/960/267 236/961/267
f 214/962/268 236/963/268 212/964/268
o cone
v -0.21250000000000002 0.1875 -0.32499999999999996
v -0.21250000000000002 0.21875 -0.32499999999999996
v -0.2269851716113257 0.1875 -0.27812499999999996
v -0.2504226716113257 0.1875 -0.2960296567773486
v -0.259375 0.1875 -0.32499999999999996
v -0.2504226716113257 0.1875 -0.3539703432226513
v -0.2269851716113257 0.1875 -0.37187499999999996
v -0.19801482838867435 0.1875 -0.37187499999999996
v -0.1745773283886744 0.1875 -0.3539703432226513
v -0.16562500000000002 0.1875 -0.32499999999999996
v -0.17457732838867435 0.1875 -0.2960296567773486
v -0.19801482838867435 0.1875 -0.27812499999999996
vt 0.944654259472929 0.95703125
vt 0.9823077503786746 0.8411498856691748
vt 0.78515625 0.8411498856691748
vt 0.90700625 0.53776875
vt 0.78515625 0.53776875
vt 0.84608125 0.95703125
vt 0.94465625 0.95703125
vt 0.9823062499999999 0.8411500000000001
vt 0.78515625 0.8411500000000001
vt 0.90700625 0.53776875
vt 0.78515625 0.53776875
vt 0.84608125 0.95703125
vt 0.9823062499999999 0.95703125
vt 0.94465625 0.8411500000000001
vt 0.78515625 0.95703125
vt 0.90700625 0.53776875
vt 0.78515625 0.53776875
vt 0.84608125 0.95703125
vt 0.9010385213832417 0.797531992068738
vt 0.78515625 0.759881292797367
vt 0.7851562500000001 0.95703125
vt 0.90700625 0.53776875
vt 0.78515625 0.53776875
vt 0.84608125 0.95703125
vt 0.90700625 0.76953125
vt 0.78515625 0.76953125
vt 0.84608125 0.95703125
vt 0.90700625 0.53776875
vt 0.78515625 0.53776875
vt 0.84608125 0.95703125
vt 0.8228097409057455 0.8411498856691748
vt 0.78515625 0.95703125
vt 0.9823077503786746 0.95703125
vt 0.90700625 0.53776875
vt 0.78515625 0.53776875
vt 0.84608125 0.95703125
vt 0.82280625 0.8411500000000001
vt 0.78515625 0.95703125
vt 0.9823062499999999 0.95703125
vt 0.90700625 0.53776875
vt 0.78515625 0.53776875
vt 0.84608125 0.95703125
vt 0.78515625 0.8411500000000001
vt 0.82280625 0.95703125
vt 0.9823062499999999 0.8411500000000001
vt 0.90700625 0.53776875
vt 0.78515625 0.53776875
vt 0.84608125 0.95703125
vt 0.78515625 0.919380550728629
vt 0.9010385213832417 0.95703125
vt 0.9010385213832417 0.759881292797367
vt 0.90700625 0.53776875
vt 0.78515625 0.53776875
vt 0.84608125 0.95703125
vt 0.859375 0.9296875
vt 0.981225 0.9296875
vt 0.9203 0.7421875
vt 0.90700625 0.53776875
vt 0.78515625 0.53776875
vt 0.84608125 0.95703125
vn 0 -1 0
vn -0.3409158756246071 0.8274202110975705 0.44626467484482746
vn 0 -1 0
vn -0.5467263862403948 0.8200895793605922 0.16894774462148296
vn 0 -1 0
vn -0.5467263862403948 0.8200895793605922 -0.16894774462148296
vn 0 -1 0
vn -0.34091587562460707 0.8274202110975705 -0.44626467484482735
vn 0 -1 0
vn 0 0.8320502943378437 -0.5547001962252291
vn 0 -1 0
vn 0.34091587562460773 0.8274202110975702 -0.4462646748448271
vn 0 -1 0
vn 0.5467263862403946 0.820089579360592 -0.16894774462148396
vn 0 -1 0
vn 0.5467263862403948 0.8200895793605922 0.16894774462148296
vn 0 -1 0
vn 0.34091587562460707 0.8274202110975705 0.44626467484482735
vn 0 -1 0
vn 0 0.8320502943378437 0.5547001962252291
usemtl m_0c03e05d-bbee-7892-1d84-ab9d7a9a7988
f 239/965/269 240/966/269 237/967/269
f 240/968/270 239/969/270 238/970/270
f 240/971/271 241/972/271 237/973/271
f 241/974/272 240/975/272 238/976/272
f 241/977/273 242/978/273 237/979/273
f 242/980/274 241/981/274 238/982/274
f 242/983/275 243/984/275 237/985/275
f 243/986/276 242/987/276 238/988/276
f 243/989/277 244/990/277 237/991/277
f 244/992/278 243/993/278 238/994/278
f 244/995/279 245/996/279 237/997/279
f 245/998/280 244/999/280 238/1000/280
f 245/1001/281 246/1002/281 237/1003/281
f 246/1004/282 245/1005/282 238/1006/282
f 246/1007/283 247/1008/283 237/1009/283
f 247/1010/284 246/1011/284 238/1012/284
f 247/1013/285 248/1014/285 237/1015/285
f 248/1016/286 247/1017/286 238/1018/286
f 248/1019/287 239/1020/287 237/1021/287
f 239/1022/288 248/1023/288 238/1024/288
o sphere
v -0.21250000000000002 0.40625 -0.32499999999999996
v -0.21250000000000002 0.59375 -0.32499999999999996
v -0.23995873926376118 0.5662912607362388 -0.25870873926376114
v -0.2513325214724777 0.5 -0.23125
v -0.2399587392637612 0.4337087392637612 -0.25870873926376114
v -0.27879126073623883 0.5662912607362388 -0.29754126073623877
v -0.30625 0.5 -0.2861674785275223
v -0.27879126073623883 0.4337087392637612 -0.29754126073623877
v -0.27879126073623883 0.5662912607362388 -0.35245873926376114
v -0.30625 0.5 -0.36383252147247763
v -0.27879126073623883 0.4337087392637612 -0.35245873926376114
v -0.2399587392637612 0.5662912607362388 -0.39129126073623877
v -0.2513325214724777 0.5 -0.41874999999999996
v -0.2399587392637612 0.4337087392637612 -0.39129126073623877
v -0.18504126073623886 0.5662912607362388 -0.39129126073623877
v -0.17366747852752237 0.5 -0.41874999999999996
v -0.18504126073623886 0.4337087392637612 -0.3912912607362388
v -0.1462087392637612 0.5662912607362388 -0.35245873926376114
v -0.11875000000000002 0.5 -0.3638325214724777
v -0.1462087392637612 0.4337087392637612 -0.35245873926376114
v -0.1462087392637612 0.5662912607362388 -0.29754126073623877
v -0.11875000000000002 0.5 -0.2861674785275223
v -0.14620873926376118 0.4337087392637612 -0.29754126073623877
v -0.1850412607362388 0.5662912607362388 -0.25870873926376114
v -0.1736674785275223 0.5 -0.23125
v -0.1850412607362388 0.4337087392637612 -0.25870873926376114
vt 0.0018628274389309585 0.7053733489478491
vt 0.033860400348755926 0.75
vt 0.076171875 0.6858778721742671
vt 0.703125 0.9375
vt 0.6254625 0.9375
vt 0.6368375 1
vt 0.69175 1
vt 0.25425 0.4375
vt 0.1993375 0.4375
vt 0.1879625 0.5
vt 0.265625 0.5
vt 0.03386040034875587 0.86328125
vt 0.0018628274389309307 0.9079079010521509
vt 0.076171875 0.9274033778257329
vt 0.007830977984868523 0.6507861358360678
vt 0.0018628274389309585 0.7053733489478491
vt 0.07617187499999999 0.6858778721742671
vt 0.51539375 0.5625
vt 0.43773125 0.5625
vt 0.44910625 0.625
vt 0.50401875 0.625
vt 0.50401875 0.9375
vt 0.44910625 0.9375
vt 0.43773125 1
vt 0.51539375 1
vt 0.0018628274389309307 0.9079079010521509
vt 0.007830977984868523 0.9624951141639322
vt 0.076171875 0.9274033778257329
vt 0.048715625 0.6141278721742671
vt 0.007830977984868523 0.6507861358360678
vt 0.076171875 0.6858778721742671
vt 0.7026625 0.8125
vt 0.625 0.8125
vt 0.636375 0.875
vt 0.6912875 0.875
vt 0.4412875 0.4375
vt 0.386375 0.4375
vt 0.375 0.5
vt 0.45266249999999997 0.5
vt 0.007830977984868523 0.9624951141639322
vt 0.048715625 0.9991533778257329
vt 0.076171875 0.9274033778257329
vt 0.103628125 0.6141278721742671
vt 0.048715625 0.6141278721742671
vt 0.076171875 0.6858778721742671
vt 0.32789375 0.9375
vt 0.25023125 0.9375
vt 0.26160625 1
vt 0.31651875 1
vt 0.31651875 0.6875
vt 0.26160625 0.6875
vt 0.25023125 0.75
vt 0.32789375 0.75
vt 0.048715625 0.9991533778257329
vt 0.103628125 0.9991533778257329
vt 0.076171875 0.9274033778257329
vt 0.14451277201513146 0.6507861358360678
vt 0.103628125 0.6141278721742671
vt 0.076171875 0.6858778721742671
vt 0.265625 0.3125
vt 0.1879625 0.3125
vt 0.1993375 0.375
vt 0.25425 0.375
vt 0.06675 0.4375
vt 0.0118375 0.4375
vt 0.0004625000000000046 0.5
vt 0.078125 0.5
vt 0.103628125 0.9991533778257329
vt 0.1445127720151315 0.9624951141639322
vt 0.076171875 0.9274033778257329
vt 0.15048092256106904 0.7053733489478491
vt 0.14451277201513146 0.6507861358360678
vt 0.07617187500000001 0.6858778721742671
vt 0.51539375 0.6875
vt 0.43773125 0.6875
vt 0.44910625 0.75
vt 0.50401875 0.75
vt 0.50401875 0.8125
vt 0.44910625 0.8125
vt 0.43773125 0.875
vt 0.51539375 0.875
vt 0.1445127720151315 0.9624951141639322
vt 0.15048092256106907 0.9079079010521509
vt 0.076171875 0.9274033778257329
vt 0.11848334965124407 0.75
vt 0.15048092256106904 0.7053733489478491
vt 0.076171875 0.6858778721742671
vt 0.6401625 0.4375
vt 0.5625 0.4375
vt 0.573875 0.5
vt 0.6287875 0.5
vt 0.0662875 0.3125
vt 0.011374999999999996 0.3125
vt 0 0.375
vt 0.0776625 0.375
vt 0.15048092256106907 0.9079079010521509
vt 0.11848334965124413 0.86328125
vt 0.076171875 0.9274033778257329
vt 0.42798663603947595 0.29817612243538794
vt 0.37670086396052405 0.3178014183189103
vt 0.42798663603947595 0.375
vt 0.32789375 0.5625
vt 0.25023125 0.5625
vt 0.26160625 0.625
vt 0.31651875 0.625
vt 0.31651875 0.8125
vt 0.26160625 0.8125
vt 0.25023125 0.875
vt 0.32789375 0.875
vt 0.626700863960524 0.7486988775646121
vt 0.677986636039476 0.7290735816810897
vt 0.626700863960524 0.671875
vn -0.2705980500730986 0.9238795325112867 0.27059805007309884
vn -0.653281482438188 0.3826834323650899 0.6532814824381886
vn -0.6532814824381884 -0.38268343236508956 0.6532814824381884
vn -0.2705980500730987 -0.9238795325112867 0.2705980500730987
vn -0.3826834323650901 0.9238795325112866 0
vn -0.9238795325112866 0.3826834323650901 0
vn -0.9238795325112866 -0.3826834323650901 0
vn -0.3826834323650901 -0.9238795325112866 0
vn -0.2705980500730987 0.9238795325112867 -0.2705980500730987
vn -0.6532814824381883 0.3826834323650901 -0.6532814824381883
vn -0.6532814824381882 -0.38268343236509006 -0.6532814824381882
vn -0.2705980500730987 -0.9238795325112867 -0.2705980500730987
vn 0 0.9238795325112866 -0.38268343236509006
vn 0 0.3826834323650901 -0.9238795325112866
vn -9.338669185803131e-16 -0.3826834323650902 -0.9238795325112866
vn -3.8682034312753696e-16 -0.9238795325112868 -0.38268343236509
vn 0.2705980500730986 0.9238795325112867 -0.27059805007309884
vn 0.6532814824381877 0.38268343236509017 -0.6532814824381887
vn 0.6532814824381886 -0.3826834323650896 -0.6532814824381882
vn 0.2705980500730988 -0.9238795325112868 -0.2705980500730986
vn 0.3826834323650901 0.9238795325112866 0
vn 0.9238795325112866 0.38268343236509006 0
vn 0.9238795325112866 -0.38268343236509017 -4.669334592901564e-16
vn 0.38268343236509006 -0.9238795325112866 -1.9341017156376838e-16
vn 0.27059805007309873 0.9238795325112867 0.27059805007309856
vn 0.6532814824381883 0.38268343236509006 0.6532814824381883
vn 0.6532814824381884 -0.3826834323650898 0.6532814824381884
vn 0.2705980500730986 -0.9238795325112867 0.2705980500730986
vn 0 0.9238795325112866 0.3826834323650901
vn 0 0.38268343236508945 0.9238795325112868
vn 0 -0.38268343236508945 0.9238795325112868
vn 0 -0.9238795325112867 0.3826834323650901
usemtl m_e7465e2a-3671-e6ed-7fd9-117fe63defb3
f 254/1025/289 251/1026/289 250/1027/289
f 255/1028/290 252/1029/290 251/1030/290 254/1031/290
f 256/1032/291 253/1033/291 252/1034/291 255/1035/291
f 253/1036/292 256/1037/292 249/1038/292
f 257/1039/293 254/1040/293 250/1041/293
f 258/1042/294 255/1043/294 254/1044/294 257/1045/294
f 259/1046/295 256/1047/295 255/1048/295 258/1049/295
f 256/1050/296 259/1051/296 249/1052/296
f 260/1053/297 257/1054/297 250/1055/297
f 261/1056/298 258/1057/298 257/1058/298 260/1059/298
f 262/1060/299 259/1061/299 258/1062/299 261/1063/299
f 259/1064/300 262/1065/300 249/1066/300
f 263/1067/301 260/1068/301 250/1069/301
f 264/1070/302 261/1071/302 260/1072/302 263/1073/302
f 265/1074/303 262/1075/303 261/1076/303 264/1077/303
f 262/1078/304 265/1079/304 249/1080/304
f 266/1081/305 263/1082/305 250/1083/305
f 267/1084/306 264/1085/306 263/1086/306 266/1087/306
f 268/1088/307 265/1089/307 264/1090/307 267/1091/307
f 265/1092/308 268/1093/308 249/1094/308
f 269/1095/309 266/1096/309 250/1097/309
f 270/1098/310 267/1099/310 266/1100/310 269/1101/310
f 271/1102/311 268/1103/311 267/1104/311 270/1105/311
f 268/1106/312 271/1107/312 249/1108/312
f 272/1109/313 269/1110/313 250/1111/313
f 273/1112/314 270/1113/314 269/1114/314 272/1115/314
f 274/1116/315 271/1117/315 270/1118/315 273/1119/315
f 271/1120/316 274/1121/316 249/1122/316
f 251/1123/317 272/1124/317 250/1125/317
f 252/1126/318 273/1127/318 272/1128/318 251/1129/318
f 253/1130/319 274/1131/319 273/1132/319 252/1133/319
f 274/1134/320 253/1135/320 249/1136/320