# Made in Blockbench 4.9.4
mtllib robosos.mtl

o robosos
v 0 0 0
v 0.13397459621556132 0 0.49999999999999994
v 0.13397459621556132 0.1875 0.49999999999999994
v 0.3660254037844386 0 0.36602540378443865
v 0.3660254037844386 0.1875 0.36602540378443865
v 0.49999999999999994 0 0.13397459621556132
v 0.49999999999999994 0.1875 0.13397459621556132
v 0.49999999999999994 0 -0.13397459621556138
v 0.49999999999999994 0.1875 -0.13397459621556138
v 0.36602540378443865 0 -0.3660254037844386
v 0.36602540378443865 0.1875 -0.3660254037844386
v 0.1339745962155615 0 -0.4999999999999999
v 0.1339745962155615 0.1875 -0.4999999999999999
v 0.06698737448593337 0.1875 -0.2500002850471461
v 0.18301291056121288 0.1875 -0.18301291056121285
v 0.25000028504714616 0.1875 -0.06698737448593331
v 0.25000028504714616 0.1875 0.06698737448593328
v 0.18301291056121285 0.1875 0.18301291056121288
v 0.06698737448593328 0.1875 0.25000028504714616
v 0.12912173911988922 0.1875 -0.48188889075707986
v 0.12912173911988906 0.1875 0.4818888907570799
v 0.35276715163719086 0.1875 0.35276715163719086
v 0.4818888907570799 0.1875 0.12912173911988906
v 0.4818888907570799 0.1875 -0.1291217391198891
v 0.35276715163719086 0.1875 -0.35276715163719086
v 0.12912173911988922 0.19374999999999992 -0.48188889075707986
v 0.12912173911988906 0.19374999999999992 0.4818888907570799
v 0.35276715163719086 0.19374999999999992 0.35276715163719086
v 0.4818888907570799 0.19374999999999992 0.12912173911988906
v 0.4818888907570799 0.19374999999999992 -0.1291217391198891
v 0.35276715163719086 0.19374999999999992 -0.35276715163719086
v 0.13397459621556132 0.19374999999999992 0.49999999999999994
v 0.3660254037844386 0.19374999999999992 0.36602540378443865
v 0.49999999999999994 0.19374999999999992 0.13397459621556132
v 0.49999999999999994 0.19374999999999992 -0.13397459621556138
v 0.36602540378443865 0.19374999999999992 -0.3660254037844386
v 0.1339745962155615 0.19374999999999992 -0.4999999999999999
v 0.014558571287016807 0.1875 -0.05433332772876008
v 0.0397747564417433 0.1875 -0.039774756441743296
v 0.054333327728760095 0.1875 -0.014558571287016797
v 0.054333327728760095 0.1875 0.01455857128701679
v 0.039774756441743296 0.1875 0.0397747564417433
v 0.01455857128701679 0.1875 0.054333327728760095
v 0 0.19999999999999996 0
v 0.014558571287016807 0.19999999999999996 -0.05433332772876008
v 0.01455857128701679 0.19999999999999996 0.054333327728760095
v 0.039774756441743296 0.19999999999999996 0.0397747564417433
v 0.054333327728760095 0.19999999999999996 0.01455857128701679
v 0.054333327728760095 0.19999999999999996 -0.014558571287016797
v 0.0397747564417433 0.19999999999999996 -0.039774756441743296
v -0.1339745962155613 0 0.49999999999999994
v -0.1339745962155613 0.1875 0.49999999999999994
v -0.3660254037844387 0 0.36602540378443854
v -0.3660254037844387 0.1875 0.36602540378443854
v -0.5 0 0.1339745962155611
v -0.5 0.1875 0.1339745962155611
v -0.49999999999999994 0 -0.13397459621556126
v -0.49999999999999994 0.1875 -0.13397459621556126
v -0.3660254037844386 0 -0.3660254037844387
v -0.3660254037844386 0.1875 -0.3660254037844387
v -0.13397459621556113 0 -0.5
v -0.13397459621556113 0.1875 -0.5
v -0.06698722172962794 0.1875 -0.2499997149528538
v -0.18301291056121285 0.1875 -0.1830129105612129
v -0.25000028504714616 0.1875 -0.06698737448593325
v -0.2500002850471462 0.1875 0.06698737448593317
v -0.1830129105612129 0.1875 0.18301291056121283
v -0.06698737448593327 0.1875 0.25000028504714616
v -0.12912172805353173 0.1875 -0.4818888494568728
v -0.12912173911988903 0.1875 0.4818888907570799
v -0.3527671516371909 0.1875 0.3527671516371908
v -0.48188889075707997 0.1875 0.12912173911988883
v -0.4818888907570799 0.1875 -0.129121739119889
v -0.35276715163719086 0.1875 -0.3527671516371909
v -0.12912172805353173 0.19374999999999992 -0.4818888494568728
v -0.12912173911988903 0.19374999999999992 0.4818888907570799
v -0.3527671516371909 0.19374999999999992 0.3527671516371908
v -0.48188889075707997 0.19374999999999992 0.12912173911988883
v -0.4818888907570799 0.19374999999999992 -0.129121739119889
v -0.35276715163719086 0.19374999999999992 -0.3527671516371909
v -0.1339745962155613 0.19374999999999992 0.49999999999999994
v -0.3660254037844387 0.19374999999999992 0.36602540378443854
v -0.5 0.19374999999999992 0.1339745962155611
v -0.49999999999999994 0.19374999999999992 -0.13397459621556126
v -0.3660254037844386 0.19374999999999992 -0.3660254037844387
v -0.13397459621556113 0.19374999999999992 -0.5
v -0.01455853808802104 0.1875 -0.05433320382842127
v -0.039774756441743296 0.1875 -0.03977475644174331
v -0.054333327728760095 0.1875 -0.014558571287016785
v -0.0543333277287601 0.1875 0.014558571287016766
v -0.03977475644174331 0.1875 0.03977475644174329
v -0.014558571287016786 0.1875 0.054333327728760095
v -0.01455853808802104 0.19999999999999996 -0.05433320382842127
v -0.014558571287016786 0.19999999999999996 0.054333327728760095
v -0.03977475644174331 0.19999999999999996 0.03977475644174329
v -0.0543333277287601 0.19999999999999996 0.014558571287016766
v -0.054333327728760095 0.19999999999999996 -0.014558571287016785
v -0.039774756441743296 0.19999999999999996 -0.03977475644174331
vt 0.1830125 0.5
vt 0.3169875 0.5
vt 0.25 0.75
vt 0.634184375 0.90625
vt 0.768159375 0.90625
vt 0.768159375 1
vt 0.634184375 1
vt 0.05935996093750001 0.380859375
vt 0.059473700377844496 0.3804348949091454
vt 0.06552629988152406 0.3804348958771191
vt 0.06564003906249999 0.380859375
vt 0.3169875 1
vt 0.1830125 1
vt 0.25 0.75
vt 0.63427734375 0.90625
vt 0.76806640625 0.90625
vt 0.76806640625 1
vt 0.63427734375 1
vt 0.4330125 0.9330125
vt 0.3169875 1
vt 0.25 0.75
vt 0.76806640625 0.90625
vt 0.900390625 0.90625
vt 0.900390625 1
vt 0.76806640625 1
vt 0.5 0.8169875
vt 0.4330125 0.9330125
vt 0.25 0.75
vt 0.5021625 0.90625
vt 0.634184375 0.90625
vt 0.634184375 1
vt 0.5021625 1
vt 0.07421875 0.36600058593749996
vt 0.07379426990914548 0.3661143253778445
vt 0.07076797099559501 0.36087265400440494
vt 0.07107871093749998 0.36056191406250004
vt 0.5 0.6830125
vt 0.5 0.8169875
vt 0.25 0.75
vt 0.634184375 0.90625
vt 0.768159375 0.90625
vt 0.768159375 1
vt 0.634184375 1
vt 0.07421875 0.37228066406250004
vt 0.07379426990914548 0.3721669246221555
vt 0.07379427087711904 0.36611432511847597
vt 0.07421875 0.36600058593749996
vt 0.4330125 0.5669875
vt 0.5 0.6830125
vt 0.25 0.75
vt 0.768159375 0.90625
vt 0.90018125 0.90625
vt 0.90018125 1
vt 0.768159375 1
vt 0.07107871093749998 0.37771933593749996
vt 0.07076797028698995 0.3774085952869899
vt 0.07379427087711904 0.37216692488152403
vt 0.07421875 0.37228066406250004
vt 0.3169875 0.5
vt 0.4330125 0.5669875
vt 0.25 0.75
vt 0.5021625 0.90625
vt 0.634184375 0.90625
vt 0.634184375 1
vt 0.5021625 1
vt 0.06564003906249999 0.380859375
vt 0.06552629962215553 0.3804348949091454
vt 0.07076797099559501 0.37740859599559506
vt 0.07107871093749998 0.37771933593749996
vt 0.07107871093749998 0.36056191406250004
vt 0.07076797028698995 0.3608726547130101
vt 0.06552629988152406 0.3578463541228809
vt 0.06564003906249999 0.357421875
vt 0.06564003906249999 0.357421875
vt 0.06552629962215553 0.3578463550908546
vt 0.05947370011847597 0.3578463541228809
vt 0.05935996093750001 0.357421875
vt 0.6489707090170872 0.3396666019142106
vt 0.6635293075824606 0.33966666386438005
vt 0.6897437881891914 0.43750014252357305
vt 0.6227562881891914 0.43749985747642695
vt 0.6635292909829128 0.3396666019142106
vt 0.6761373562819194 0.3323873562819194
vt 0.7477563543343817 0.4040063543343817
vt 0.6897437118108086 0.43749985747642695
vt 0.6761373109312979 0.3323873109312979
vt 0.68341666386438 0.31977930758246065
vt 0.781250142523573 0.34599378818919135
vt 0.7477561456656183 0.4040061456656183
vt 0.6834166019142106 0.3197792909829128
vt 0.68341666386438 0.30522069241753935
vt 0.781250142523573 0.27900621181080865
vt 0.781249857476427 0.3459937118108086
vt 0.6834166019142106 0.3052207090170872
vt 0.6761373562819194 0.2926126437180806
vt 0.7477563543343817 0.2209936456656183
vt 0.781249857476427 0.2790062881891914
vt 0.6761373109312979 0.2926126890687021
vt 0.6635293075824606 0.28533333613561995
vt 0.6897437881891914 0.18749985747642695
vt 0.7477561456656183 0.22099385433438168
vt 0.6635292909829128 0.2853333980857894
vt 0.6489706924175394 0.28533333613561995
vt 0.6227562118108086 0.18749985747642695
vt 0.6897437118108086 0.18750014252357305
vt 0.6897437881891914 0.43750014252357305
vt 0.7208110641391797 0.55344444537854
vt 0.5916889413940155 0.5534444247284365
vt 0.6227562881891914 0.43749985747642695
vt 0.6227562118108086 0.18749985747642695
vt 0.5916889358608203 0.07155555462146002
vt 0.7208110586059845 0.07155557527156353
vt 0.6897437118108086 0.18750014252357305
vt 0.6897437881891914 0.18749985747642695
vt 0.7208110641391797 0.07155555462146002
vt 0.8326333661224519 0.13611663387754813
vt 0.7477561456656183 0.22099385433438168
vt 0.7477563543343817 0.2209936456656183
vt 0.8326333812393603 0.13611661876063974
vt 0.8971944247284365 0.2479389413940155
vt 0.781249857476427 0.2790062881891914
vt 0.781250142523573 0.27900621181080865
vt 0.89719444537854 0.24793893586082028
vt 0.8971944247284365 0.3770610586059845
vt 0.781249857476427 0.3459937118108086
vt 0.781250142523573 0.34599378818919135
vt 0.89719444537854 0.3770610641391797
vt 0.8326333661224519 0.48888336612245187
vt 0.7477561456656183 0.4040061456656183
vt 0.7477563543343817 0.4040063543343817
vt 0.8326333812393603 0.48888338123936026
vt 0.7208110586059845 0.5534444247284365
vt 0.6897437118108086 0.43749985747642695
vt 0.025177726770541673 0.3582899305555556
vt 0.0162487436112377 0.3582899305555556
vt 0.0162487436112377 0.3559027777777778
vt 0.025177726770541673 0.3559027777777778
vt 0.027674591851683018 0.3559027777777778
vt 0.018409783148316934 0.3559027777777778
vt 0.018409783148316934 0.353515625
vt 0.027674591851683018 0.353515625
vt 0.029499805844700147 0.3582899305555556
vt 0.020570822685396166 0.3582899305555556
vt 0.020570822685396166 0.3559027777777778
vt 0.029499805844700147 0.3559027777777778
vt 0.03199667092584149 0.3582899305555556
vt 0.022731862222475398 0.3582899305555556
vt 0.022731862222475398 0.3559027777777778
vt 0.03199667092584149 0.3559027777777778
vt 0.033821884918858604 0.36306423611111116
vt 0.02489290175955463 0.36306423611111116
vt 0.02489290175955463 0.36067708333333337
vt 0.033821884918858604 0.36067708333333337
vt 0.034157710462920716 0.36067708333333337
vt 0.02489290175955463 0.36067708333333337
vt 0.02489290175955463 0.3582899305555556
vt 0.034157710462920716 0.3582899305555556
vt 0.033821884918858604 0.36545138888888884
vt 0.02489290175955463 0.36545138888888884
vt 0.02489290175955463 0.36306423611111116
vt 0.033821884918858604 0.36306423611111116
vt 0.036318749999999955 0.36545138888888884
vt 0.027053941296633865 0.36545138888888884
vt 0.027053941296633865 0.36306423611111116
vt 0.036318749999999955 0.36306423611111116
vt 0.033821884918858604 0.3702256944444444
vt 0.02489290175955463 0.3702256944444444
vt 0.02489290175955463 0.36783854166666663
vt 0.033821884918858604 0.36783854166666663
vt 0.034157710462920716 0.3702256944444444
vt 0.02489290175955463 0.3702256944444444
vt 0.02489290175955463 0.36783854166666663
vt 0.034157710462920716 0.36783854166666663
vt 0.029499805844700147 0.375
vt 0.020570822685396166 0.375
vt 0.020570822685396166 0.3726128472222222
vt 0.029499805844700147 0.3726128472222222
vt 0.03199667092584149 0.375
vt 0.022731862222475398 0.375
vt 0.022731862222475398 0.3726128472222222
vt 0.03199667092584149 0.3726128472222222
vt 0.027338766307620905 0.375
vt 0.018409783148316934 0.375
vt 0.018409783148316934 0.3726128472222222
vt 0.027338766307620905 0.3726128472222222
vt 0.027674591851683018 0.375
vt 0.018409783148316934 0.375
vt 0.018409783148316934 0.3726128472222222
vt 0.027674591851683018 0.3726128472222222
vt 0.9317832090170877 0.6062681644142106
vt 0.9390625000000005 0.5791015625
vt 0.9463418075824611 0.60626822636438
vt 0.9463417909829133 0.6062681644142106
vt 0.9390625000000005 0.5791015625
vt 0.9589498562819199 0.5989889187819194
vt 0.9589498109312984 0.5989888734312979
vt 0.9390625000000005 0.5791015625
vt 0.9662291638643805 0.5863808700824606
vt 0.9662291019142111 0.5863808534829128
vt 0.9390625000000005 0.5791015625
vt 0.9662291638643805 0.5718222549175394
vt 0.9662291019142111 0.5718222715170872
vt 0.9390625000000005 0.5791015625
vt 0.9589498562819199 0.5592142062180806
vt 0.9589498109312984 0.5592142515687021
vt 0.9390625000000005 0.5791015625
vt 0.9463418075824611 0.55193489863562
vt 0.9463417909829133 0.5519349605857894
vt 0.9390625000000005 0.5791015625
vt 0.9317831924175398 0.55193489863562
vt 0.588775 0.634765625
vt 0.5860113184779643 0.634765625
vt 0.5860113184779643 0.6318359375
vt 0.588775 0.6318359375
vt 0.5828418065220358 0.6318359375
vt 0.580078125 0.6318359375
vt 0.580078125 0.62890625
vt 0.5828418065220358 0.62890625
vt 0.588775 0.6318359375
vt 0.5860113184779643 0.6318359375
vt 0.5860113184779643 0.62890625
vt 0.588775 0.62890625
vt 0.588775 0.6318359375
vt 0.5860113184779643 0.6318359375
vt 0.5860113184779643 0.62890625
vt 0.588775 0.62890625
vt 0.588775 0.6318359375
vt 0.5860113184779643 0.6318359375
vt 0.5860113184779643 0.62890625
vt 0.588775 0.62890625
vt 0.588775 0.634765625
vt 0.5860113184779643 0.634765625
vt 0.5860113184779643 0.6318359375
vt 0.588775 0.6318359375
vt 0.588775 0.634765625
vt 0.5860113184779643 0.634765625
vt 0.5860113184779643 0.6318359375
vt 0.588775 0.6318359375
vt 0.1830125 1
vt 0.0669875 0.9330125
vt 0.25 0.75
vt 0.501953125 0.90625
vt 0.63427734375 0.90625
vt 0.63427734375 1
vt 0.501953125 1
vt 0.0669875 0.9330125
vt 0 0.8169875
vt 0.25 0.75
vt 0.768159375 0.90625
vt 0.90018125 0.90625
vt 0.90018125 1
vt 0.768159375 1
vt 0.0539212890625 0.36056191406250004
vt 0.05423202971301007 0.3608726547130101
vt 0.05120572912288093 0.36611432511847597
vt 0.05078125 0.36600058593749996
vt 0 0.8169875
vt 0 0.6830125
vt 0.25 0.75
vt 0.634184375 0.90625
vt 0.768159375 0.90625
vt 0.768159375 1
vt 0.634184375 1
vt 0.05078125 0.36600058593749996
vt 0.05120573009085454 0.3661143253778445
vt 0.05120572912288093 0.37216692488152403
vt 0.05078125 0.37228066406250004
vt 0 0.6830125
vt 0.0669875 0.5669875
vt 0.25 0.75
vt 0.5021625 0.90625
vt 0.634184375 0.90625
vt 0.634184375 1
vt 0.5021625 1
vt 0.05078125 0.37228066406250004
vt 0.05120573009085454 0.3721669246221555
vt 0.05423202900440499 0.37740859599559506
vt 0.0539212890625 0.37771933593749996
vt 0.0669875 0.5669875
vt 0.1830125 0.5
vt 0.25 0.75
vt 0.768159375 0.90625
vt 0.90018125 0.90625
vt 0.90018125 1
vt 0.768159375 1
vt 0.0539212890625 0.37771933593749996
vt 0.05423202971301007 0.3774085952869899
vt 0.05947370011847597 0.3804348958771191
vt 0.05935996093750001 0.380859375
vt 0.05935996093750001 0.357421875
vt 0.059473700377844496 0.3578463550908546
vt 0.05423202900440499 0.36087265400440494
vt 0.0539212890625 0.36056191406250004
vt 0.6363626890687021 0.3323873109312979
vt 0.6489706924175394 0.33966666386438005
vt 0.6227562118108086 0.43750014252357305
vt 0.5647438543343817 0.4040061456656183
vt 0.6290833980857894 0.3197792909829128
vt 0.6363626437180806 0.3323873562819194
vt 0.5647436456656183 0.4040063543343817
vt 0.531250142523573 0.3459937118108086
vt 0.6290833980857894 0.3052207090170872
vt 0.62908333613562 0.31977930758246065
vt 0.531249857476427 0.34599378818919135
vt 0.531250142523573 0.2790062881891914
vt 0.6363626890687021 0.2926126890687021
vt 0.62908333613562 0.30522069241753935
vt 0.531249857476427 0.27900621181080865
vt 0.5647438543343817 0.22099385433438168
vt 0.6489707090170872 0.2853333980857894
vt 0.6363626437180806 0.2926126437180806
vt 0.5647436456656183 0.2209936456656183
vt 0.6227562881891914 0.18750014252357305
vt 0.5647436456656183 0.2209936456656183
vt 0.4798666187606398 0.13611661876063974
vt 0.5916889413940155 0.07155557527156353
vt 0.6227562881891914 0.18750014252357305
vt 0.531249857476427 0.27900621181080865
vt 0.41530555462146 0.24793893586082028
vt 0.4798666338775481 0.13611663387754813
vt 0.5647438543343817 0.22099385433438168
vt 0.531249857476427 0.34599378818919135
vt 0.41530555462146 0.3770610641391797
vt 0.4153055752715636 0.2479389413940155
vt 0.531250142523573 0.2790062881891914
vt 0.5647436456656183 0.4040063543343817
vt 0.4798666187606398 0.48888338123936026
vt 0.4153055752715636 0.3770610586059845
vt 0.531250142523573 0.3459937118108086
vt 0.6227562118108086 0.43750014252357305
vt 0.5916889358608203 0.55344444537854
vt 0.4798666338775481 0.48888336612245187
vt 0.5647438543343817 0.4040061456656183
vt 0.023016687233462445 0.3582899305555556
vt 0.014087704074158467 0.3582899305555556
vt 0.014087704074158467 0.3559027777777778
vt 0.023016687233462445 0.3559027777777778
vt 0.023352512777524558 0.3582899305555556
vt 0.014087704074158467 0.3582899305555556
vt 0.014087704074158467 0.3559027777777778
vt 0.023352512777524558 0.3559027777777778
vt 0.018694608159303974 0.36306423611111116
vt 0.009765625 0.36306423611111116
vt 0.009765625 0.36067708333333337
vt 0.018694608159303974 0.36067708333333337
vt 0.01903043370336609 0.36067708333333337
vt 0.009765625 0.36067708333333337
vt 0.009765625 0.3582899305555556
vt 0.01903043370336609 0.3582899305555556
vt 0.018694608159303974 0.36783854166666663
vt 0.009765625 0.36783854166666663
vt 0.009765625 0.36545138888888884
vt 0.018694608159303974 0.36545138888888884
vt 0.01903043370336609 0.36545138888888884
vt 0.009765625 0.36545138888888884
vt 0.009765625 0.36306423611111116
vt 0.01903043370336609 0.36306423611111116
vt 0.018694608159303974 0.3702256944444444
vt 0.009765625 0.3702256944444444
vt 0.009765625 0.36783854166666663
vt 0.018694608159303974 0.36783854166666663
vt 0.01903043370336609 0.3702256944444444
vt 0.009765625 0.3702256944444444
vt 0.009765625 0.36783854166666663
vt 0.01903043370336609 0.36783854166666663
vt 0.023016687233462445 0.375
vt 0.014087704074158467 0.375
vt 0.014087704074158467 0.3726128472222222
vt 0.023016687233462445 0.3726128472222222
vt 0.023352512777524558 0.375
vt 0.014087704074158467 0.375
vt 0.014087704074158467 0.3726128472222222
vt 0.023352512777524558 0.3726128472222222
vt 0.9191751890687025 0.5989888734312979
vt 0.9390625000000005 0.5791015625
vt 0.9317831924175398 0.60626822636438
vt 0.9118958980857899 0.5863808534829128
vt 0.9390625000000005 0.5791015625
vt 0.9191751437180811 0.5989889187819194
vt 0.9118958980857899 0.5718222715170872
vt 0.9390625000000005 0.5791015625
vt 0.9118958361356204 0.5863808700824606
vt 0.9191751890687025 0.5592142515687021
vt 0.9390625000000005 0.5791015625
vt 0.9118958361356204 0.5718222549175394
vt 0.9317832090170877 0.5519349605857894
vt 0.9390625000000005 0.5791015625
vt 0.9191751437180811 0.5592142062180806
vt 0.5828418065220358 0.6318359375
vt 0.580078125 0.6318359375
vt 0.580078125 0.62890625
vt 0.5828418065220358 0.62890625
vt 0.5828418065220358 0.6318359375
vt 0.580078125 0.6318359375
vt 0.580078125 0.62890625
vt 0.5828418065220358 0.62890625
vt 0.5828418065220358 0.634765625
vt 0.580078125 0.634765625
vt 0.580078125 0.6318359375
vt 0.5828418065220358 0.6318359375
vt 0.5828418065220358 0.634765625
vt 0.580078125 0.634765625
vt 0.580078125 0.6318359375
vt 0.5828418065220358 0.6318359375
vt 0.5828418065220358 0.634765625
vt 0.580078125 0.634765625
vt 0.580078125 0.6318359375
vt 0.5828418065220358 0.6318359375
vn 0 -1 0
vn 4.143408735633879e-16 0 -1
vn 0 1 0
vn 0 -1 0
vn 0 0 1
vn 0 -1 0
vn 0.4999999999999999 0 0.8660254037844387
vn 0 -1 0
vn 0.8660254037844387 0 0.49999999999999994
vn 0 1 0
vn 0 -1 0
vn 1 0 0
vn 0 1 0
vn 0 -1 0
vn 0.8660254037844387 0 -0.49999999999999994
vn 0 1 0
vn 0 -1 0
vn 0.5000000000000001 0 -0.8660254037844386
vn 0 1 0
vn 0 1 0
vn 0 1 0
vn 0 1 0
vn 0 1 0
vn 0 1 0
vn 0 1 0
vn 0 1 0
vn 0 1 0
vn 0 1 0
vn 0 1 0
vn 0 1 0
vn 0 1 0
vn 0 1 0
vn 0 1 0
vn 0 1 0
vn 0 1 0
vn 0 0 -1
vn 0 0 1
vn -0.49999999999999994 0 -0.8660254037844387
vn 0.49999999999999994 0 0.8660254037844387
vn -0.8660254037844387 0 -0.49999999999999994
vn 0.8660254037844387 0 0.49999999999999994
vn -1 0 0
vn 1 0 0
vn -0.8660254037844388 0 0.5000000000000001
vn 0.8660254037844387 0 -0.5
vn -0.5 0 0.8660254037844388
vn 0.5000000000000001 0 -0.8660254037844386
vn 1.599274029431488e-7 0 0.9999999999999872
vn 4.143408735633879e-16 0 -1
vn 0 1 0
vn 0 1 0
vn 0 1 0
vn 0 1 0
vn 0 1 0
vn 0 1 0
vn 0 1 0
vn -0.000004255241727850107 0 -0.9999999999909465
vn 0 0 1
vn 0.5 0 0.8660254037844387
vn 0.8660254037844387 0 0.5000000000000001
vn 1 0 0
vn 0.8660254037844386 0 -0.5000000000000001
vn 0.49999999999999994 0 -0.8660254037844388
vn 0 -1 0
vn -0.49999999999999994 0 0.8660254037844387
vn 0 -1 0
vn -0.8660254037844389 0 0.4999999999999996
vn 0 1 0
vn 0 -1 0
vn -1 0 -2.0717043678169412e-16
vn 0 1 0
vn 0 -1 0
vn -0.8660254037844388 0 -0.4999999999999997
vn 0 1 0
vn 0 -1 0
vn -0.4999999999999995 0 -0.8660254037844389
vn 0 1 0
vn 0 1 0
vn 0 1 0
vn 0 1 0
vn 0 1 0
vn 0 1 0
vn 0 1 0
vn 0 1 0
vn 0 1 0
vn 0 1 0
vn 0 1 0
vn 0 1 0
vn 0.49999999999999994 0 -0.8660254037844387
vn -0.5 0 0.8660254037844388
vn 0.8660254037844388 0 -0.4999999999999996
vn -0.8660254037844388 0 0.4999999999999996
vn 1 0 2.149566432795487e-16
vn -1 0 -2.0717043678169412e-16
vn 0.8660254037844388 0 0.4999999999999997
vn -0.8660254037844389 0 -0.49999999999999983
vn 0.49999986149879916 0 0.8660254837481295
vn -0.49999999999999967 0 -0.866025403784439
vn 0 1 0
vn 0 1 0
vn 0 1 0
vn 0 1 0
vn 0 1 0
vn -0.5000000000000001 0 0.8660254037844387
vn -0.8660254037844389 0 0.4999999999999997
vn -1 0 -2.383095760947121e-16
vn -0.8660254037844387 0 -0.49999999999999983
vn -0.49999631484803675 0 -0.8660275313974626
usemtl m_7eb7ee8c-57ab-4dd1-ab11-fdeef8999259
f 61/1/1 12/2/1 1/3/1
f 12/4/2 61/5/2 62/6/2 13/7/2
f 86/8/3 75/9/3 26/10/3 37/11/3
f 2/12/4 51/13/4 1/14/4
f 51/15/5 2/16/5 3/17/5 52/18/5
f 4/19/6 2/20/6 1/21/6
f 2/22/7 4/23/7 5/24/7 3/25/7
f 6/26/8 4/27/8 1/28/8
f 4/29/9 6/30/9 7/31/9 5/32/9
f 34/33/10 29/34/10 28/35/10 33/36/10
f 8/37/11 6/38/11 1/39/11
f 6/40/12 8/41/12 9/42/12 7/43/12
f 35/44/13 30/45/13 29/46/13 34/47/13
f 10/48/14 8/49/14 1/50/14
f 8/51/15 10/52/15 11/53/15 9/54/15
f 36/55/16 31/56/16 30/57/16 35/58/16
f 12/59/17 10/60/17 1/61/17
f 10/62/18 12/63/18 13/64/18 11/65/18
f 37/66/19 26/67/19 31/68/19 36/69/19
f 33/70/20 28/71/20 27/72/20 32/73/20
f 32/74/21 27/75/21 76/76/21 81/77/21
f 87/78/22 38/79/22 14/80/22 63/81/22
f 38/82/23 39/83/23 15/84/23 14/85/23
f 39/86/24 40/87/24 16/88/24 15/89/24
f 40/90/25 41/91/25 17/92/25 16/93/25
f 41/94/26 42/95/26 18/96/26 17/97/26
f 42/98/27 43/99/27 19/100/27 18/101/27
f 43/102/28 92/103/28 68/104/28 19/105/28
f 14/106/29 20/107/29 69/108/29 63/109/29
f 68/110/30 70/111/30 21/112/30 19/113/30
f 19/114/31 21/115/31 22/116/31 18/117/31
f 18/118/32 22/119/32 23/120/32 17/121/32
f 17/122/33 23/123/33 24/124/33 16/125/33
f 16/126/34 24/127/34 25/128/34 15/129/34
f 15/130/35 25/131/35 20/132/35 14/133/35
f 76/134/36 27/135/36 21/136/36 70/137/36
f 32/138/37 81/139/37 52/140/37 3/141/37
f 27/142/38 28/143/38 22/144/38 21/145/38
f 33/146/39 32/147/39 3/148/39 5/149/39
f 28/150/40 29/151/40 23/152/40 22/153/40
f 34/154/41 33/155/41 5/156/41 7/157/41
f 29/158/42 30/159/42 24/160/42 23/161/42
f 35/162/43 34/163/43 7/164/43 9/165/43
f 30/166/44 31/167/44 25/168/44 24/169/44
f 36/170/45 35/171/45 9/172/45 11/173/45
f 31/174/46 26/175/46 20/176/46 25/177/46
f 37/178/47 36/179/47 11/180/47 13/181/47
f 26/182/48 75/183/48 69/184/48 20/185/48
f 86/186/49 37/187/49 13/188/49 62/189/49
f 93/190/50 44/191/50 45/192/50
f 45/193/51 44/194/51 50/195/51
f 50/196/52 44/197/52 49/198/52
f 49/199/53 44/200/53 48/201/53
f 48/202/54 44/203/54 47/204/54
f 47/205/55 44/206/55 46/207/55
f 46/208/56 44/209/56 94/210/56
f 93/211/57 45/212/57 38/213/57 87/214/57
f 46/215/58 94/216/58 92/217/58 43/218/58
f 47/219/59 46/220/59 43/221/59 42/222/59
f 48/223/60 47/224/60 42/225/60 41/226/60
f 49/227/61 48/228/61 41/229/61 40/230/61
f 50/231/62 49/232/62 40/233/62 39/234/62
f 45/235/63 50/236/63 39/237/63 38/238/63
f 51/239/64 53/240/64 1/241/64
f 53/242/65 51/243/65 52/244/65 54/245/65
f 53/246/66 55/247/66 1/248/66
f 55/249/67 53/250/67 54/251/67 56/252/67
f 82/253/68 77/254/68 78/255/68 83/256/68
f 55/257/69 57/258/69 1/259/69
f 57/260/70 55/261/70 56/262/70 58/263/70
f 83/264/71 78/265/71 79/266/71 84/267/71
f 57/268/72 59/269/72 1/270/72
f 59/271/73 57/272/73 58/273/73 60/274/73
f 84/275/74 79/276/74 80/277/74 85/278/74
f 59/279/75 61/280/75 1/281/75
f 61/282/76 59/283/76 60/284/76 62/285/76
f 85/286/77 80/287/77 75/288/77 86/289/77
f 81/290/78 76/291/78 77/292/78 82/293/78
f 88/294/79 87/295/79 63/296/79 64/297/79
f 89/298/80 88/299/80 64/300/80 65/301/80
f 90/302/81 89/303/81 65/304/81 66/305/81
f 91/306/82 90/307/82 66/308/82 67/309/82
f 92/310/83 91/311/83 67/312/83 68/313/83
f 67/314/84 71/315/84 70/316/84 68/317/84
f 66/318/85 72/319/85 71/320/85 67/321/85
f 65/322/86 73/323/86 72/324/86 66/325/86
f 64/326/87 74/327/87 73/328/87 65/329/87
f 63/330/88 69/331/88 74/332/88 64/333/88
f 77/334/89 76/335/89 70/336/89 71/337/89
f 81/338/90 82/339/90 54/340/90 52/341/90
f 78/342/91 77/343/91 71/344/91 72/345/91
f 82/346/92 83/347/92 56/348/92 54/349/92
f 79/350/93 78/351/93 72/352/93 73/353/93
f 83/354/94 84/355/94 58/356/94 56/357/94
f 80/358/95 79/359/95 73/360/95 74/361/95
f 84/362/96 85/363/96 60/364/96 58/365/96
f 75/366/97 80/367/97 74/368/97 69/369/97
f 85/370/98 86/371/98 62/372/98 60/373/98
f 98/374/99 44/375/99 93/376/99
f 97/377/100 44/378/100 98/379/100
f 96/380/101 44/381/101 97/382/101
f 95/383/102 44/384/102 96/385/102
f 94/386/103 44/387/103 95/388/103
f 94/389/104 95/390/104 91/391/104 92/392/104
f 95/393/105 96/394/105 90/395/105 91/396/105
f 96/397/106 97/398/106 89/399/106 90/400/106
f 97/401/107 98/402/107 88/403/107 89/404/107
f 98/405/108 93/406/108 87/407/108 88/408/108